<svg width="500" height="250" viewBox="0 0 2000 1000" xmlns="http://www.w3.org/2000/svg">
  <defs>
    <symbol id="map" viewbox="90 0 2370 1200">
      <path d="M1022.8 20.65c-1.627-.005-3.34.006-5.053.027-4.453.053-8.906.207-13.188.454-7.793.452-19.355 1.021-25.693 1.258-22.008-.346-54.107 5.01-72.97 5.113-10.662-5.74-26.964-4.19-36.827-4.255-25.526-.905-48.754 2.969-72.3 4.308-22.52 2.034-18.95 1.28-28.159 3.855-11.025 4.218-22.879 1.642-14.132 13.705 17.207 3.93 10.21 5.068 7.307 8.11-10.35 3.282-14.471.565-22.294.456-3.637-3.123-16.476 1.467-13.085 1.631.572 7.213-7.79 7.675-6.562.215-7.65 1.737-10.556 1.96-26.704-.4-2.004.767-4.872 3.693-3.613 3.693 3.85 3.483 13.539 6.295 16.058 6.209 11.52-5.087 9.897 3.142 11.637 3.213 10.577.126 16.946-9.352 22.19-8.86 1.305 2.181-7.794 6.322-4.769 7.253 6.638 1.305 35.096 1.93 36.457.803 4.515-.199 21.551.962 21.917-5.085-15.714-.172-48.635 3.939-39.722-3.533 16.45-5.257 30.627.978 43.653 1.712.797-2.396 12.138-4.738 12.342-6.612 5.038-5.993 17.066-6.08 20.931-7.869 6.964-4.45 13.658-6.015 19.27-6.558 10.866-3.008 17.59-4.355 29.17-1.258 0 1.686-4.025 2.849-11.99 3.506-5.272.985-34.554 1.151-32.169 9.477 21.611 14.868 18.961 2.72 44.501 8.539 21.047 4.107-2.537 17.739 3.342 25.994-3.907 9.74-6.52 21.373-7.965 27.598 3.73 3.068-1.77 8.194.599 19.462-1.48 5.445 6.945 15.86 7.965 21.063 9.022-.663 19.27 9.476 24.579 5.919 2.394-3.347 4.481-6.445 7.452-9.483 3.958-5.896 7.65-11.076 14.389-14.048.666-5.657 9.587-9.545 10.448-12.445 6.25-4.457 11.942 2.093 15.93-2.518 8.564.052 18.002-10.852 24.152-12.42 10.005-4.985 24.615-1.927 38.196-8.112 8.703-2.394 15.785-8.504 20.297-12.899-7.3-8.78-4.298-7.02 13.619-17.964 4.656-1.803 9.397-3.568 12.932-5.113-7.446-7.724.578-9.871.256-11.752-2.097-18.853-1.137-13.933 27.663-21.576 8.565-1.534 6.508-2.759-5.568-3.291-13.955.595-28.304-2.601-39.054-5.755-3.51-1.083-13.875-1.73-25.436-1.765zm355.39 7.062c-1.704-.045-4.37.629-8.101 2.413-3.782-.412-10.789 5.626-13.445 5.191-2.252 1.081 2.165 1.55 3.169 1.66 6.166-1.766 1.315-2.487 6.337-.962 4.082.228 19.434 3.613 28.946-2.115-4.232-2.47-10.444-3.158-14.902-3.293.783-1.593.186-2.836-2.004-2.894zm150.21 3.42c-7.533.132-16.067 3.276-12.457 7.612 7.441 1.112 38.208 8.522 41.453 4.604-7.017-5.388-21.669-4.976-19.357-8.807-.96-2.482-5.119-3.487-9.638-3.409zm-181.59 1.101c-.595-.011-1.13.043-1.56.167-5.487 4.286-7.69.233-16.53 1.553-4.326 2.514 18.408 3.982 23.126 4.175 3.06-2.894-2.658-1.792.855-4.148-1.762-1.083-4.104-1.71-5.891-1.746zm-120.05 2.212c-4.196.013-7.744.52-9.719 1.97-25.272.168-29.705 1.496-29.46 3.346 4.45 8.062 2.426 5.8 21.238 14.776 5.053 2.45 7.024 2.234 7.709-.856 4.424-9.42 19.77-6.142 15.245-3.508-2.842 4.083 13.593 2.254 15.588-.776-6.472-2.322-28.508-5.38-13.962-8.19-1.266 2.095 26.763-1.059 20.642-4.496-5.676.068-18.05-2.293-27.28-2.265zM1563.1 40.5c-.878-.015-1.553.046-1.938.199-.188 2.665-.749 5.487.085 7.843 1.885 0 19.612-1.828 21.24-2.194 2.976-1.948-13.229-5.75-19.387-5.849zm18.959 9.032c-1.37-.012-2.656.067-3.598.268-3.254.705-4.967 3.39-3.425 5.22-.073.989-12.104 3.733-13.274 2.812.856-1.459-15.673-.195-17.215 1.31-7.198 2.302-15.025 3.113-22.268 5.675-.357 3.826-4.77-.403-5.909 2.275-.442 2.35 5.762 1.262 8.649 3.507-5.686 2.583-18.827 1.225-25.607 2.248 4.79 5.769 19.254 10.494 16.616 10.712-9.44-.265-36.75-12.191-40.511-7.901 2.214 5.473 12.069.134.771 9.904 5.142 3.338 8.747 8.296 11.304 14.272 2.033 1.98 14.928-.485 9.164 1.122-4.616 3.125-1.365 6.503-1.455 11.503-1.217 2.39-5.982 5.49-7.879 5.113-6.71-1.7-1.608-1.779-.257-4.763 3.174-4.543 3.544-8.553-1.114-10.63-3.867-2.08-6.66-6.736-7.622-11.074-9.252-7.279-5.613-10.574-6.594-11.995-1.974-2.006-13.394-2.887-9.936-3.077 6.978-.808-7.016-4.263-6.68-1.58-.85 3.274-2.983 10.498-4.454 11.35-5.848 4.535 1.667 3.775 1.714 8.001-.263 5.08 15.492 6.74 13.274 10.39-12.04-2.36-25.623-7.832-38.112-8.643-3.722.826-12.316-5.813-14.732-3.46-.48 5.102 9.295 5.145 12.761 8.299 1.774 1.968-3.326 4.667-4.796 3.11-3.03-3.933-7.6-.538-14.902-.35-1.237 2.67-12.325 2.66-9.42-1.766-2.668-2.066-8.688 1.782-11.82 2.14-4.282-.004-7.367 3.941-11.477 4.147-4.608.515-1.796 9-14.13 5.542-4.805-2.587.086-4.156 3.682-5.138-5.03-5.661-22.239-7.374-16.529-3.428 4.801 1.414.981 7.09 4.71 8.832 6.472 5.414-4.5 5.883-6.422 2.254-2.383-.363-3.932 2.855-6.852 3.904-2.574.812-4.14 2.303-6.252 3.993 8.777 9.425.404 4.177-13.018 2.03-4.57 4.373 4.914 4.394 6.765 6.398.856 2.192-4.367 1.892-8.82-.506-4.158-.637-5.626-3.358-7.794-5.465-2.05-8.38-3.852-5.693-7.965-9.345-.342-.814 1.198-.736 6.508.352 17.9 3.658 22.866 3.648 28.176-.103 7.199-3.906-5.568-12.051-7.706-10.682-4.277-1.419-9.601-3.38-13.018-4.849-5.902-3.306-14.744-.816-19.698-4.521-4.74-2.879-11.068-1.14-15.844-1.714 1.962-.54 4.263-1.648 5.223-2.861-3.168-.506-12.844-4.395-15.415-4.42-7.714 1.313-8.95-2.198-12.076 0-3.294 1.573-16.191.635-15.417 3.426-2.532 2.117-7.965 3.019-8.222 2.784-2.055-1.935-7.622-1.097-7.622 1.148 0 1.242-.086 1.311-3.169 1.637-5.01 3.547-16.905 3.81-15.93 7.066.1 2.313-6.94.513-7.45 3.589 2.264 1.554 3.868-.619 6.85-1.258 4.623 1.868-5.109 11.109-7.708 11.829-4.1 4.013-8.19 10.517-8.478 10.63-7.497 6.477-10.997 4.89-12.332 6.338-4.87 5.01-11.038 6.505-15.76 9.32-2.57 1.56-2.654 1.815-2.74 8.085.746 5.33 1.489 13.314 1.714 13.355 3.665 5.649 11.333 9.254 17.129 5.594 1.627-1.157 4.538-2.923 6.594-3.934 1.97-1.01 3.682-2.491 3.682-3.27.35-2.073 3.31 4.192 3.34 4.873.955 4.104 3.83 8.36 6.424 11.135 2.336 2.256 2.392 4.194.6 6.055-5.983-.371-8.044 2.238-8.737-.325 2.92-3.118-4.93-3.81-1.798-5.97 1.028-.607.941-5.593-.086-5.593-1.773 1.673-4.805 4.238-7.622 4.282-4.625 0-7.793 9.123-4.367 12.687 1.81 2.315-.382 2.975-.086 4.925 2.35 2.45 2.39 7.364-2.399 6.699-3.696-.923-6.482 2.08-9.849 1.627-4.025-.59-7.709 1.67-8.394 5.138-.856 4.557-6.508 9.697-12.932 11.804-3.768 1.242-4.367 1.748-4.966 4.523-.865 5.158-6.209 2.89-8.479 6.588-3.893 3.737-11.093-5.931-11.392.136 1.8 5.79 1.628 6.279-1.884 6.262-4.613-.473-9.646-1.614-13.96.48-2.549 2.937-.302 6.174 1.97 6.321 11.71.675 17.726 16.103 14.133 27.675-.942 3.135-3.34 4.832-5.739 4.07-10.375-2.739-19.49.905-28.864-2.382-3.602-1.203-12.828 3.72-11.56 7.307.428 1.173.942 4.788 1.027 8.025-.043 7.452-1.912 11.701-5.052 16.601-.7 8.538 3.417 9.676 2.054 15.417 1.534 6.37 11.792-3.298 15.331 4.9 4.753 7.947 3.634 2.624.427 10.305-2.912 7.092-4.882 9.38-10.192 11.915-8.873 3.806-8.478 7.912-12.246 13.242-6.443 14.899 2.185 20.506-20.812 28.165-2.261 1.113-14.869 18.316-14.986 20.796-6.053 10.133-13.333 19.832-16.016 31.35.294 3.249 3.358-.087 4.454 14.023 1.477 12.382-3.805 25.496-8.994 32.336 9.22 6.492.886 13.995 6.853 20.05 7.327 7.466 9.285 9.329 15.415 15.847 3.108 3.36 6.848 13.412 7.28 16.566 7.868 5.668 14.912 11.078 20.04 15.683 10.364 9.38 12.934 10.184 20.727 6.398 4.539-2.193 6.765-2.707 13.274-3.024 7.194-.351 11.049.231 15.074 2.244 6.788.737 12.46-6.613 19.355-6.955 5.912-3.025 12.228-4.273 17.898-4.471 6.585-.71 12.734 3.825 13.104 10.819 3.05 7.513 12.71 3.533 19.442 2.784 8.297.855 10.31 14.867 7.023 21.867-.892 2.201-.542 17.671-4.368 15.582-2.72 10.925 20.765 27.016 21.582 37.225 6.317 10.089 5.757 27.111 7.709 32.02 1.884 4.754 2.739 8.359 2.653 10.946-6.027 8.764-6.208 24.24-12.76 32.55-3.766 16.223 5.614 26.08 10.534 38.117 7.257 12.729 6.767 24.895 9.422 39.325 1.639 12.308 25.78 39.84 17.385 48.686 1.267 10.646 4.311 8.267 9.164 13.491 1.884 2.141 3.597 2.141 5.738.257 6.68-5.69 21.351-3.524 28.52-3.683 9.256-2.551 19.717-6.895 26.55-14.423 9.798-3.748 11.594-23.443 20.983-24.979 9.85-15.245 3.861-23.885 14.13-28.163 13.381-9.625 5.72-24.569 5.566-34.69 1.618-4.24 20.811-21.659 23.725-22.854 7.444-2.753 13.584-9.022 16.357-16.41 1.093-7.221-.76-14.738-.685-21.63.87-20.157-3.452-13.102-5.396-21.576.05-11.089-2.161-15.79-4.88-23.42 1.605-15.977 14.267-24.858 20.211-35.222 3.683-7.246 15.245-19.717 22.354-24.146 4.625-2.886 18.156-17.774 18.241-20.027 6.539-12.43 16.844-24.646 17.129-38.546 4.159-4.838 2.534-20.285-3.253-14.93-7.748 5.63-26.295 4.74-33.145 8.772-17.799 6.354-13.07-13.447-16.016-16.566-13.177-16.883-22.542-15.96-24.665-25.055-2.69-15.365-13.559-17.146-14.046-30.407-4.295-17.962-9.894-22.173-16.616-34.82.542-4.19-15.441-26.993-15.585-29.663 1.034-3.346 6.236 9.787 9.85 10.494 1.645-.774 2.903-2.527 4.793-2.57 3.148 2.197 6.004 7.004 8.052 10.869 2.554 3.046 9.191 17.232 10.535 17.397 3.536 1.46 8.164 10.768 7.536 14.56-2.327 8.366 14.86 19.19 14.902 23.23.3 2.877 11.768 16.31 3.169 15.102 5.778 10.934 11.979 11.63 13.533 26.767 2.348 15.066 14.03.96 19.782.856 21.378-.7 35.312-26.476 52.929-26.553 23.107-15.233 30.458-21.265 31.345-40.635-6.89-9.345-23.931-11.986-24.152-24.515 0-5.337-1.028-6.347-2.827-2.758-20.218 30.14-30.217 15.07-28.948.05-15.273-.672-12.112-6.66-18.413-14.372-11.085-12.174-.533-13.457 4.797-14.939 6.323 3.099 7.493 14.363 14.732 17.003 12.542 6.508 12.879 9.89 23.723 8.539 4.1-.482 6.294-5.722 8.564-2.681 2.913 8.576 6.896 10.535 13.874 11.35 13.764 1.874 29.142 3.02 41.796 1.147 9.911-3.738 11.628 11.02 16.357 11.273 11.997 7.671 5.63 6.509 7.88 10.329 0 1.628 11.819 12.789 13.532 12.746 14.378-6.015 9.357-3.76 12.845 8.481 3.05 10.006 4.725 20.326 9.166 29.396 2.947 5.538 6.067 11.512 7.536 17.321 2.233 9.36 11.204 17.145 11.733 26.844 0 2.227 4.624 9.329 6.85 10.52 7.652.997 5.512-9.437 13.018-7.23 3.64.001-2.04-1.28-.683-5.832 8.248-2.061 1.63-12.813 4.624-17.133 1.37-1.62 1.455-8.616.256-15.203-1.713-9.174-1.285-11.606 2.141-10.758 1.263-.217 9.73-7.345 9.765-8.223 2.038-6.012 9.648-9.74 13.531-15.308 2.632-4.486 7.514-5.828 11.134-9.106 3.512-3.473.163-6.568 2.74-9.688 5.243-3.438 9-.148 14.046-1.763 7.659-2.258 9.005-2.23 10.707-7.23 1.99 1.602 4.312 4.94 4.367 6.502-2.242 4.397 13.727 16.39 13.445 17.267-.376 10.197 2.414.938 6.167 9.26 2.184 6.524 1.228 9.945.772 16.814 5.54 2.285 17.1-2.02 17.3-7.71.085-2.68 5.738 9.21 6.509 13.518.494 3.559 10.584 27.416 3.768 24.841 1.25 4.359 10.827 6 .856 6.262 3.143 3.887 3.29 9.13 2.313 13.44-.856 3.605.256 11.092 1.369 9.901 3.69-1.94 5.92 2.806 8.308 5.97 1.838 10.338 4.872.97 4.968 11.033-.578 5.94 6.808 15.781 7.023 18.466 0 1.37 1.626 3.017 6.166 6.074 2.321 6.694 12.612 6.396 12.675 10.682.797 2.59 7.027-3.203 1.028-3.556.2.038-.652-3.322-.77-4.71-6.297-8.077-2.97-15.15-5.654-23.023-.623-1.372-12.944-15.05-14.303-14.724-4.291-4.191-8.463-19.806-9.677-21.356-6.725 9.775-3.983-7.094-2.826-11.461 1.903-3.967.285-14.788 4.111-15.254 4.852.82.828 6.56 5.396 6.526 4.876 1.038 11.165 5.553 12.419 11.084 0 1.319 3.082 4.498 4.367 4.498-1.749 1.596 11.377 1.97 8.65 4.205-1.541.942-1.198 10.356.43 10.356 5.305-1.468 11.965-13.227 13.018-13.92 5.102-.427 7.526-5.176 11.817-6.637 4.434-5.797 1.517-12.26.857-17.75-.476-4.542-5.985-18.222-9.935-19.487-1.97-.625-12.076-10.26-12.076-11.511-2.461-3.75-5.802-7.037-5.824-10.837.017-5.711 12.219-18.16 17.557-16.223 1.66.724 5.719-.138 5.053 1.739-.295.806-.045 2.176.475 3.562-4.984 1.005-6.352 9.997-2.411 12.235 9.17 3.24 8.945-4.096 12.076-9.525.977-3.504-1.745-3.633-4.482-3.28-.116-1.702.177-3.24 3.678-3.848 2.958-3.45 15.552-1.38 14.559-8.163-1.196-4.041 4.422 6.089 4.71 1.79 2.87-3.864 12.452-3.084 13.96-6.878 1.431-3.59 13.19-9.188 11.22-13.14 2.78-1.664 7.267-15.968 7.366-18.15 2.317-10.824 7.01-14.425 4.11-23.581-5.067 5.03-2.611-2.175-5.824-8.755-2.856-4.41-7.029-5.11-9.42-9.311-3.426-6.022-7.195-9.937-11.134-11.838-3.854-1.807-4.198-2.234-3.684-4.196.356-8.273 13.927-10.933 13.962-14.245 3.367-1.613-17.994-6.653-16.788-4.008-.56 4.249-5.176 3.91-6.338.341-.947-6.657-11.733-3.298-11.99-9.335 2.53-4.202 9.277-3.9 12.847-11.298 2.083-5.841 9.724-2.147 7.707 2.217-.837 1.766.821 10.463.942 10.467.428 0 2.227-1.591 4.11-3.527 4.242-4.356 11.735-5.548 17.216-2.442 1.986.384 1.62 12.425 2.57 11.11 1.643-2.066 17.565 6.043 12.846 6.853-1.456 0-.942 1.49 1.542 4.12 3.597 3.956 4.368 5.078 3.854 5.652-2.06 3.375.986 5.633 1.026 8.378 0 1.799.343 1.944 3.854 1.739 4.198-.894 13.494-3.6 13.703-8.189 0-3.417-5.052-12.326-9.163-16.172-3.549-5.982-11.508-8.008-15.331-13.276-1.787-4.904 10.045-6.944 6.766-13.414-5.08-15.485 12.434-9.932 16.187-10.733 2.74-1.028 7.536-6.56 7.536-8.642 5.063-6.667 2.56-24.659 4.967-30.836.55-3.352-3.907-13.558-5.909-15.23-3.169-2.193-6.51-11.325-4.197-11.325 7.073 4.133 13.418 11.63 16.958 18.922 1.825 4.38 6.296 7.117 7.879 11.41 2.613 5.113 5.2 9.659 9.592 13.783-.47-2.925-1.646-6.296 1.2-5.756 1.854.138 5.35 4.148 5.48 2.68 0-1.61-2.74-5.062-4.11-5.062-8.4-5.373-9.24-7.494-12.591-15.632 1.863-4.054 11.522 3.503 11.563 2.116-2.742-2.697-6.32-4.756-9.078-7.419-1.884-1.919-6.766-6.56-10.963-10.329-5.976-5.536-20.662-23.067-23.98-22.169-1.198.454-.941.849 1.285 2.202 4.089 15.83-2.467 4.864-13.19-.693-13.788-.555-35.062.073-28.69-9.08 3.682-4.703 5.053-7.34 3.94-7.708.7-2.88 5.729-18.01 7.109-18.52 2.826-1.07 15.073-1.208 15.758-.189.257.497 1.285.91 2.227.91s1.541-.309 1.284-.669c-.171-.368 2.742-.548 6.51-.428 8.21 2.143 5.5-3.391 7.364-2.861 8.504-1.034 13.78 5.681 14.902 5.697 4.34-.25 24.977-1.868 12.162-5.243-5.957-1.85-2.302-13.884 1.798-14.295 4.714-4.595 15.173 5.677 15.93 5.352 17.068 4.807 7.368-10.743 7.538-10.818 6.116-1.875 4.494 7.148 9.164 7.845.326 4.168-4.596 10.033-3.684 15.42.777 3.682-2.68 8.524-5.566 8.565-1.926 2.934-.355 2.396 2.14 6.26-.685 3.598 3.77 9.448 13.704 18.014 6.57 7.44 1.538 2.329 15.158 13.276 4.175 2.966 11.337 14.09 14.132 8.678 2.505-5.47-4.946-9.939 2.313-13.115 1.887-2.049-6-4.619-4.883-8.17 5.375-8.572-8.725-15.069 2.74-12.387.771-.805-3.169-4.839-4.796-4.873-5.306-1.424-6.399-9.326-11.733-8.164-4.443 1.761-8.593-13.426-7.793-13.3 7.875-6.709 34.418 2.007 32.46-2.143-2.733-13.226 26.362-14.02 26.378-15.607-2.755-5.443-19.775-8.843-21.412-13.25 4.071-9.484-1.998-6.39-4.71-10.065 10.038.78 23.053 7.865 32.716 8.59 5.24 1.06 16.892 2.88 17.385 2.57-10.163-9.724-3.188-7.238 7.708-5.833-13.25-12.893-35.526-8.553-48.39-14.245-4.624-2.253-43.08-11.854-55.669-13.893-4.196-.685-10.96-1.388-14.986-1.576-17.063.372-17.036 2.58-37.685 1.576-6.937-.223-22.695-.292-23.979-.103-16.577-5.007-24.255-9.04-40.338-8.403-23.495.045-44.475-8.031-67.146-10.201-20.584-3.349-18.217 1.562-17.9 2.57 13.174 7.025 4.677 3.884-5.48 3.855.075 2.585-21.557-1.285-21.241 0 5.018 11.104-12.45.354-15.586-2.463-9.039-7.837-21.268-7.958-32.716-10.467-7.61-.89-5.953.517-2.57 4.364-19.592-.747-18.563-3.608-45.135-3.16-5.85-2.056-10.23-4.89-12.675-8.75-1.51-7.004-19.26-8.96-23.725-8.995-14.14-1.047-19.463-4.967-33.828-5.515zm-935.97 1.366c-7.015-.166-37.142 5.871-38.06 8.324 2.736-.686 24.666 5.926 26.122 7.256 3.425 4.876 12.762 1.244 14.268.99 5.344-.901 13.386-1.845 17.874-2.09 11.078.266 26.256-7.355 7.418-6.476 3.254-4.286-.585-4.47-3.83-3.508-7.485 2.015-3.407 5.764-9.018 5.89-6.373.106-6.273-4-12.631-4.737-8.686.259-1.212-3.257.427-3.616 5.125-1.58-.955-2.041-2.57-2.033zm785.02 2.415c-2.432.1-4.818.733-6.717 1.895-6.078 3.208-23.943.505-27.577 4.363-1.622 2.427-10.51 2.702-10.192 4.979-3.349 9.168-6.278 9.717-11.22 18.545 1.986 5.524 29.684 11.409 31.518 7.496-.597 1.58-19.275-5.905-12.675-12.068 3.626-2.476 6.35-10.102 11.048-11.135 7.25-4.381 13.497-5.711 19.355-6.88 14.988-2.957 17.985-4.861 10.791-6.799a16.287 16.287 0 00-4.33-.396zm314.69 4.858c-3.57.023-6.4.496-6.44 2.175 0 2.42 2.996 3.888 12.845 6.157 6.958.563 24.242-.09 25.35-3.665-4.867-4.597-10.796-2.49-18.67-4.123-2.682.14-8.495-.575-13.085-.544zm-1140.9 8.888c-8.182-.033-17.062 2.291-22.317 5.467-5.62 3.06-17.282 5.954-21.36 10.356 34.314 5.606 33.636 9.386-6.338 14.107 5.751-5.86-27.18 4.069-24.357-3.64-7.954-7.989-49.792 12.842-49.81 4.634-9.01-9.245-56.238.437-60.858-9.9-23.695.168-60.764 2.61-80.935 18.278 12.088 12.02-9.534 10.107-10.705 10.356-2.901 1.042-27.464 4.723-22.43 6.826 3.148 11.81 11.092 7.063 21.07 7.23-.753 3.698-19.458 7.58-21.978 7.178-8.182 1.003-17.339 7.622-24.435 9.422-20.303 19.363 15.475 12.583-5.514 21.089-4.061 3.76 13.708-2.142 13.112 1.386 26.207-7.4-15.425 12.538-29.547 17.508-22.613 2.922-28.51 4.379-33.64 11.273 4.144 1.204 26.876-8.36 28.185-4.471 11.28-2.026 22.834-10.186 33.614-12.42 1.846-2.745 45.85-21.541 45.418-16.626 5.274-1.632 26.484-2.957 31.234-5.216 9.613 1.195 11.255.816 20.657.212 12.637-1.029 23.351 12.223 18.011 19.41 3.442 7.333-5.003 16.285 2.654 16.968 2.658-.03 8.084 15.096 5.543 19.462 3.532 10.054-7.303 9.605-7.282 10.117-5.569.715 13.335 16.05 10.142 15.82-2.603-.198-2.954.249-5.087 6.904-1.422 4.437-6.33 13.551-8.48 15.77-10.445 8.914-13.866 22.91-21.094 31.794-2.211 2.383-4.234 14.206-3.529 15.796 1.236 11.084 2.729 18.072 2.999 28.481 15.96 9.04 12.99 15.652 15.869 29.551-.533 6.163 3.269 10.334 6.046 14.586.856.41-1.905 9.768 1.876 16.147 9.726 4.448 5.276 8.184 4.094 14.287 5.56 4.206 9.313 12.512 12.204 14.16 8.25-2.99.607-8.318-1.396-16.782-.37-3.929-3.783-16.927-6.74-18.707.324-13.94-.31-7.405-5.516-15.53-2.23-3.734-.448-14.704 2.92-13.276 7.435 1.94 5.517 5.083 6.236 10.682 1.434 13.097-3.38 5.721 4.042 13.543 4.926 7.807 9.108 14.444 7.948 18.228 9.021 11.597 18.905 18.58 18.919 33.328.194 6.113-3.927 8.025-.72 13.09 6.854 7.527 28.576 21.092 35.303 22.03 14.285 8.378 16.373 4.755 27.885 3.426 3.477 0 7.768 2.766 10.971 7.066 5.336 7.144 7.931 9.174 12.633 9.928 14.466 3.42 29.183 14.2 30.036 24.764 5.206 2.043 13.645 15.59 14.234 15.632 9.111 2.021 15.845 10.733 19.888 8.806 1.933-10.445 7.716-12.428 15.578-.96 5.411 8.99 3.422 31.599-2.732 34.983-5.656 3.247-3.64 9.609-8.513 11.486-7.07.12-7.565 23.28-9.284 23.657 1.333 7.542.957 7.142.883 12.18-6.411 2.364-1.025 17.828 2.278 19.539 6.898 4.97 11.525 14.406 15.038 22.219 1.355 4.366 16.96 30.537 16.83 31.317 3.785 20.735 37.066 23.127 42.881 39.59 1.376 12.581 6.195 62.01 3.718 71.659 3.39 20.551 7.012 32.307 4.71 54.873-3.022 12.929 3.936 30.24 6.775 44.283 2.914 12.534 5.117 25.599 4.436 34.435 12.323 26.525 28.874 43.07 38.008 51.564 10.266 3.405 14.589 10.411 28.743 10.452 9.189 4.035 12.277-1.923 14.559-3.255 11.732-3.87-6.23-2.86-17.104-13.276-3.245-6.077-12.907-11.54-13.351-18.332 8.197-6.635 1.199-9.398 8.35-15.76 8.316-9.193-10.14-10.937-12.581-15.076 12.32-8.38.17-20.53 12.445-24.925-3.854-13.22-10.515-1.48-11.477-14.391 13.258 6.267 20.715-2.211 13.866-11.478-3.83-4.426 21.05 2.447 25.368-9.937 2.506-8.322-1.309-19.731-8.727-23.983-2.297-.616-4.568-5.884-1.79-3.384 17.402 3.16 24.096 10.92 29.28-4.496 2.873-9.33 12.726-18.013 14.638-26.101 1.002-4.514 3.614-9.422 5.618-10.544 4.573-4.511-1.025-24.58 1.157-24.814 12.742-9.016 18.198-16.933 33.742-17.45 3.75.431 10.95-7.956 10.544-9.559 2.356-2.14 7.646-27.478 7.69-27.522 4.699-5.009-1.18-37.07 4.282-37.338 4.069-10.116 16.714-21.287 20.897-31.187 2.323-10.243.914-17.605-2.912-26.844-9.989-1.92-13.176-3.786-18.071-8.489-17.727-8.865-32.392-10.83-44.962-20.85-6.742 1.615-17.866-5.873-25.48-7.998-7.13-3.94-13.682-17.957-13.942-27.763-.416-6.107-20.55-20.411-31.638-17.37-12.7.95-13.588-8.117-17.908-13.414-3.072-4.262-14.932-6.523-13.188-9.071-4.798-4.863 1.734-14.998-1.208-13.945-13.286 2.94-14.352-.818-23.74 4.71-1.68-3.673-22.66-1.322-22.773-4.607-6.1-7.17-9.567-12.43-11.588-10.193-3.146 10.726-10.417 13.273-7.521-.994-3.869-.065-18.133 10.355-22.38 9.372-3.468-.874-8.203 6.107-7.432 10.973-1.61 2.737-9.24 5.972-8.675 9.02-7.29-4.44-12.226-11.123-21.335-6.4-12.104 6.279-15.526-1.37-21.375-12.788.256-5.468 4.123-25.833 6.071-28.994-.068-5.535-14.82-10.255-18.55-8.001-5.038 1.905-12.943-.154-16.728.318-.827-14.783 19.48-29.817 17.824-40.312-1.97-3.57-21.404-.896-23.528 3.504-9.141 23.745-23.402 18.298-35.002 15.503-4.03-2.093-10.857-20.629-9.985-26.715 4.823-18.945 10.58-39.005 22.968-46.47 6.626-4.628 22.321-10.35 28.768-4.787 26.477 3.36 17.256-14.488 35.757-6.03 12.82 12.302 15.74-5.277 16.11 13.954-.685 1.319-1.148 3.314-1.01 4.436 1.305 8.794 4.602 15.774 10.053 19.701 11.016-.928 5.173-28.3 4.505-31.05-2.98-11.244 4.545-21.282 12.924-25.587 3.977-3.008 19.242-14.275 23.868-14.536 12.795-11.843 20.293-21.745 19.116-30.597-.248-1.524-.094-2.989.343-3.263.446-.274.806.095.806.831 0 1.893.539 1.722 4.607-1.61 1.978-1.628 4.12-4.29 4.762-5.91 1.036-2.655 1.645-3.05 5.97-3.94 5.96-1.217 10.773-3.255 8.212-3.478 15.835-.61 10.504-9.37 11.212-9.954 3.429-5.903 8.732-9.187 14.054-11.032 9.394.109 18.709-11.923 27.834-9.85-3.26 4.448-15.78 6.728-10.303 12.523 12.81 1.933 17.758-9.34 32.04-11.212 3.45-3.746 9.909-4.632 10.379-7.068-4.854-1.824.431-4.38-1.5-6.373-14.354 8.325-19.525 4.531-25.614-.239 3.932-6.314 10.79-16.258 2.012-16.162-8.23 2.768-4.808.534-7.494-2.254 6.77-6.437 18.494-4.28 25.077-4.257 23.336 2.986 25.394-8.49 36.134-8.642 4.763-.633.656 1.936-1.208 3.751-16.83 18.136-25.686 23.237-10.705 24.138 21.83.874 20.144.678 18.79 2.168-.995 13.195 10.557-1.528 9.044-5.645-3.95.52-5.863-5.187-1.285-7.606 1.687-2.421-1.047-3.017-.933-4.952-8.113 3.975-7.43-2.274-12.77-3.392 6.423-5.813 5.304-2.59 7.947-7.606-7.396-2.068 1.559-4.063 3.324-10.415.662-10.007-6.358-16.966-17.267-18.416-.008-13.982-6.005-19.579-4.333-37.123.297 2.136-8.359 7.162-9.37 8.11-2.893 2.631-12.257 9.78-15.654 7.145-6.712-4.65-4.719-11.641.479-16.463-8.027-3.557-8.319-3.353-15.151-11-8.305.988-24.092-3.896-25.264 4.953-16.046 17.817-12.701 14.345-11.64 27.975 0 2.115-3.194 8.779-4.976 10.38-7.144 5.122-14.906 7.87-23.338 9.346 3.354 10.127-14.223 31.9-15.365 22.939-11.773-2.922 9.178-19.894 3.53-25.218-14.082 2.45-20-9.048-29.359-12.016-5.521-2.81-9.078-2.417-14.559-1.312-.634.008.333-4.455 1.746-8-.691-3.658-8.405-2.014 2.51-15.127.326-.009 2.885-1.729 5.677-3.828 10.7-7.32 24.147-11.169 34.524-17.688 6.895-4.287 12.162 1.218 16.863 1.096 8.78 4.117 1.713 2.321 12.872-.136 8.76-6.641 7.605 3.045 17.08-.077.82-11.787 12.393-29.212 18.968-31.616 1.862-7.824 17.085-7.293 10.226 2.38 15.404-2.536 3.35 1.802 5.14 5.355 18.21-2.253 20.394-.347 12.846 4.659 3.368 7.957-34.567 8.085-30.455 13.678 14.892.357 25.17-3.855 25.504 7.332 3.649 5.83 31.23 14.313 30.455 10.255-5.105 1.125-8.146-8.537-1.625-7.359 6.318 4.21 5.215 1.545 10.303-3.374-11.673-13.378-2.442-15.78 7.408-10.63 7.652-2.136 14.528-6.17 20.717-10.896-5.204-4.852-18.563-8.203-23.338-12.978 20.11-14.724-25.524-19.343-19.698-26.128 0-2.458-3.032-3.768-9.85-4.255-9.79.466-15.751.583-26.977-.724-5.85-2.283-22.31 2.802-29.333 9.075-10.961 8.242-7.296 15.859-.163 13.253-21.147 30.011-20.99-3.709-21.728-10.255 3.875-4.171 30.134-11.572 28.879-12.876-3.739-1.239-7.548-.738-11.486-1.258-2.401-.333-12.708 2.195-14.396 3.667-5.756 2.71-5.45 8.363-10.653 10.494-4.955 1.368-9.94 7.125-12.658 8.617-11.916 4.835-18.753 8.764-23.742 13.868-1.79 1.868-2.646 2.03-11.588 2.166-13.48-.462-16.73-3.545-2.192-4.822 2.977-3.307 14.34-5.362 14.825-8.935-.017-.9-3.614-2.86-7.896-4.308-4.309-3.243 13.53-15.732 14.774-16.865-1.325-1.848-20.483 2.494-21.6 3.64-8.423 10.89-2.46 3.986-5.43.615-7.486-2.103-18.08 2.478-22.644-5.489-3.489-3.587-9.43-5.039-15.794-5.065zm99.726 2.95c-11.796 1.632-13.435.575-19.193 2.465-.532 7.54-6.575 1.775-11.716 4.39-2.619 4.785 5.621 4.31 5.566 8.373 5.33 3.63 14.391.401 19.777-4.707 3.49-3.077 6.283-6.759 5.566-10.52zm353.41 46.862c-7.587.291-19.3 4.563-19.832 3.41-4.193 4.393-6.43.012-10.276-2.22-5.049-3.312-9.097 1.665-12.934 4.6-.462 2.078 16.662 1.66 4.54 3.54-4.026.556-5.053 1.036-4.454 2.004 7.864.747 12.783-1.071 4.71 5.464 0 .865 1.028 1.114 4.111.934 7.69.809 14.143 3.847 21.412 1.413 4.987-1.94 22.796-6.25 23.296-11.16-7.067-3.183-3.295-7.933-6.167-7.435-1.123-.473-2.655-.617-4.406-.55zm194.24 5.28c1.902.001 3.801.263 5.518.589 5.715 1.636-3.733 6.582-7.569 11.179-5.468 6.597-6.254 10.943-6.563 18.799-.254 6.374 4.294 5.122 8.394 8.112.171.565 2.569.282 6.594-.797 5.759-.242 10.99-2.672 15.93-3.058 9.642.01 8.19 1.279 4.71 5.327 0 1.07-4.281 1.046-12.846-.076-11.392 1.138-6.892 8.335-13.876 3.716-2.55.364-5.003 4.02-4.538 5.732.146 6.019-3.522-.328-3.597 15.659.514 4.36-.943 6.827-3.94 6.827-.368 1.945-6.766 7.33-7.88 2.594 1.542-2.518-10.619-1.345-12.846 1.234-3.53 2.006-13.979 4.302-14.132 0-4.088-3.553-14.502 5.261-14.559 2.22 6.82-6.936 7.326-1.761 7.108-8.91 3.14-4.656 1.623.7 6.596.719 3.169 0 3.854-.308 4.11-1.687 6.803-4.164 10.016-5.577 11.562-4.763 1.027-1.053 3.083-7.152 2.655-7.606-3.781 4.957-1.798-2.238-1.285-7.888 3.974-2.426 17.482-8.324 6.51-13.44-8.405-4.602-4.5-4.532-4.453-10.52 1.4-4.245 7.796-9.93 12.675-10.2 5.554-3.5 7.91-10.402 10.192-12.799 1.725-.71 3.628-.967 5.53-.965zm-134.98 41.756c-.787-.007-1.813.684-2.834 2.413-2.53 4.934-8.054 1.146-10.533 4.686-2.256 5.131-5.933 3.834-7.622 5.191.176 3.026-2.011 4.94-2.912 7.786 8.691 1.165 4.751 1.066 1.712 4.96 3.856.572 6.91 7.637 8.393 8.112 7.786-2.869 5.382.117 7.709 2.698 2.694 4.595-.368 6.399-4.283 5.917-4.922.128-.46.353-5.396 4.925 12.062 1.039-9.945 7.248 2.057 8.053 4.11.214 7.193 2.064 3.425 2.064-3.328 1.842-9.371 5.772-11.477 8.617 2.375.395 12.724-1.689 13.531-2.621 3.882-1.234 12.501-2.422 17.044-2.193 3.854.206 10.961-2.218 10.961-3.751-6.533-3.864 4.146-5.287 1.8-10.193-9.514-6.745-6.057 2.761-8.993-9.13-1.497-3.626-6.08-4.366-7.11-7.95-.77-3.272-2.997-6.124-4.71-6.158-2.208-2.051 1.514-7.238 3.255-8.943 2.056-2.124.6-3.075-4.796-3.075-1.563-.186-6.625.077-5.14-1.714 8.498-3.376 8.28-9.673 5.917-9.694zm-26.779 28.08c-2.788-.053-5.414.707-6.964 2.6-.182 6.904-8.248 2.628-9.935 5.568.161 3.025-.862 5.782 1.285 6.347 5.978 2.02-9.208 10.459-3.768 10.785 1.702 3.632 9.065 1.737 13.447-.533 4.293-2.016 9.205-1.734 10.278-5.362.33-7.423 6.01-14.146 3.595-17.13-2.2-1.359-5.15-2.223-7.938-2.276zm-461.49 47.16c8.344-.129 7.117 6.377 6.273 14.542-3.228 1.249-4.747-2.228-10.544.53-5.694-9.677-17.483-1.32-28.956-2.269 13.437-10.763 14.848-8.207 27.543-12.018 2.264-.51 4.14-.761 5.684-.785zm724.26 11.381c-1.747 1.847-6.61 2.342-7.282 3.855 1.903 2.878 2.112 2.614.515 6.237-.6 2.159 1.243 1.956-2.93 2.84 2.681.727 10.658 8.08 15.093 11.645 2.569 2.124 6.422 4.694 8.648 5.704 2.827 1.31 4.454 2.724 5.482 4.95 1.884 3.71 1.371 5.19-2.054 7.23-1.885 1.096-4.798 1.62-10.707 1.817-4.947.502-22.402-3.989-24.236-6.21-1.285-1.542-1.97-1.628-8.308-1.046-5.225.48-7.966 1.233-10.963 2.972-5.251 4.563-14.723 4.605-20.983 1.337-2.227-1.174-5.395-7.872-4.368-8.968 2.192-3.698 5.64-14.187 7.023-14.88 3.887-2.195 4.483-12.958 9.677-13.036 1.285 0 2.143.498 2.143 1.26 3.347 3.224 8.78 1.44 11.477 3.1-1.414.82-5.963 4.035-4.969 4.309 8.297 1.377 5.416 6.257 8.394 6.612 4.196-.676 7.826-4.108 12.16-4.146 5.39-.851-.406-2.568-2.054-3.238-1.768-.3-3.443-2.814-4.368-3.776 1.974-2.099 4.36-4.848 7.194-5.268 3.814-.733 7.628-2.2 11.22-2.708l4.197-.592zm78.381 2.15c4.65-.036 7.029 12.333 4.264 11.292-4.845-.98-10.881-2.2-10.705 3.904-1.433 1.584-5.106.23-3.854 2.518 2.216 2.513 7.672 5.035 7.708 8.618 12.795 7.84 8.4 5.04 9.164 11.942 3.99 2.45 2.779-1.246 5.6-2.193 3.54-.034 7.901 6.664 8.308 7.76-5.838 3.458-2.844.473-5.995.428-3.8-.462-3.431-.825-4.572 1.123 1.486 7.845 8.525 12.16 9.59 18.579 2.458 10.344.46 8.597-8.82 10.706-5.698-.184-19.845-7.702-20.726-12.822 1.782-9.942.224-8.649 6.596-13.807-4.07-4.003-8.882-7.575-12.418-11.35-7.023-7.632-8.138-9.26-8.138-11.804 0-2.818-2.483-6.304-5.395-7.503 5.819-11.768 24.736-16.686 28.435-17.21.329-.12.649-.178.959-.18zm-801.88 5.885c-9.837 6.086-14.13 20.908-20.615 27.778-4.154 4.163-6.474 4.806-6.629 1.825 2.733-14.467 11.946-28.99 27.244-29.603zm22.986.695c1.199-.017 2.27.899 2.895 2.672 2.056 5.919-1.763 9.268-4.77 4.18-5.46-3.08-7.566 9.97-11.05 12.369-3.496-3.51 5.445-13.873-9.343-2.947 7.083-9.79 8.553-6.892 3.83-15.23 7.933-1.054 14.608-.884 18.437-1.044zm552.63 1.858c.685-.004.997.152.353.574 2.75 13.756 24.314 19.592 35.714 27.975-1.396 5.302 2.565 17.467 3.938 17.56 3.887.942 3.5 4.954 2.57 7.143-.017 7.6 5.96 2.392 7.708 9.697 5.904 2.016 7.59 1.484 8.991 7.143 4.392-8.278-1.684-9.088 1.97-8.565-.32-2.628 5.647-6.252 9.164-1.552 4.705-4.21-18.395-14.576-14.387-20.883 2.479.576 8.807 5.374 9.334-.187-4.489-6.34 14.644-3.067 11.476.136-4.8 4-3.101 8.07-.256 9.312 9.813.277-5.993 9.536 5.822 10.603 5.04 1.64.497 5.727.772 7.633 6.858-1.797 4.505 3.153 5.31 4.359 4.125 1.724 1.228-5.633 4.54-4.813 3.99 2.613 13.288 6.574 12.588-.113-.342-2.51 6.595-.308 10.535 3.35.92.846 2.424 1.267 4.075 1.332-.64.165-1.282.302-1.925.358-2.398 0-1.798 2.647.942 4.043 4.3 1.895 4.76-.88 8.48-2.33.421-1.925 2.992-4.85 2.826-5.757-.754.121-1.515.347-2.28.607 1.701-2.052 3.14-2.243 5.524-.772 5.54-.615 2.143-.824 4.197 8.053 1.028 1.113 1.713 6.853 1.028 7.71-1.113 1.241-4.197 10.723-5.225 15.845-.624 7.786-10.535 10.2-14.816 6.913-3.169-2.784-12.591-1.781-16.36 1.74-7.93 3.808-16.971-5.244-25.606-3.856-6.024-3.638-13.682-4.831-19.87-9.182-1.284-2.047-9.422-.146-13.275 3.1.867 9.997 5.446 19.081-11.647 13.336-3.512-2.51-8.908-4.444-12.505-4.444-11.591-12.54-17.11-8.147-28.776-13.73-10.091 1.095-15.89-10.755-4.883-11.402 1.982.155-1.134-8.182-1.198-8.223 3.742-9.774-2.693-7.355-3.17-9.234-.684-2.672-4.194-3.187-8.048-1.174-6.772-3.393-19.63 5.597-23.981 2.836-2.313-1.422-4.711-1.319-16.273.617-9.678 1.619-15.415 3.613-15.415 5.352 0 .488-.6.67-1.285.404-5.34-.176-10.089 9.385-16.101 4.652-4.178-.854-9.349 1.48-12.591-.831-6.893-7.02 4.57-9.437 9.849-9.5 7.991 2.793 8.517-4.676 13.361-5.73 1.584-.872 9.96-9.421 8.308-10.81-5.383-4.428 6.676-15.737 8.65-16.036 9.567-3.96 10.461-5.964 10.362-12.522 0-4.206 9.079-5.713 14.303-2.39 6.156 2.817 13.252-5.213 18.586-8.506 13.66-.576 8.69 9.915 9.164 11.88 6.02-2.148 11.22 10.19 19.013 11.084 5.06 1.958 14.149 9.247 15.587 13.276 3.163 8.384-8.937 9.534-14.475 9.123-5.053-.446-6.508.018-6.508 2.039 2.573 1.586 11.327 8.004 14.389 8.78 5.943.217.488-10.675 5.396-9.184 4.15-.737 11.275-9.797 7.193-12.47-3.294-3.27 2.817-6.268 7.107-1.98 1.285 1.268 1.458 1.234 2.229-.462-2.017-9.717-13.311-8.098-13.79-14.716-11.867 1.213-12.679-10.315-19.269-14.374-4.217-2.792-4.525-10.738-1.287-11.965.523-.414 2.705-.868 3.847-.875zm750.51.712c-7.356 5.301 7.512 4.838 5.396 13.225-.132 9.073-8.349 3.376-3.939 11.855.514-1.627 4.197 1.156 4.796 3.665 1.18 2.065 2.794 2.031 3.85 1.167-.218 7.583 8.61 13.702 4.715 19.88-7.415 13.373-8.53 2.214-10.791 3.752-2.954 3.836 5.886 3.655-.858 8.242-1.912 1.992 1.172 3.59.172 5.086-2.531.78-5.014-.598-7.622.027-2.106 1.073-11.125.067-11.22 1.953-4.362 4.286-6.03 7.451-8.735 11.752-3.254 2.577-5.304 4.026-2.741 6.8 4.077 2.721 6 5.566 7.622 11.214 1.64 2.168 4.22 3.381 5.824 1.712 2.792-4.913 1.904-8.33 1.371-14.184-.49-4.383 9.394 6.99 7.45 1.712-.027-9.614 7.49 1.725 6.68-8.487.375-4.62 4.31 3.4 6.853 3.966 3.632-4.187 4.15-6.052 9.507-8.275 6.378.562 2.335-7.254 5.223-1.901 5.02 5.31.804-6.478 5.824-1.475 4.065 2.717 4.471-5.723 3.083-7.332-3.043-4.238-1.174-9.195-4.281-12.847-3.124-3.676-.436-3.108 1.711-4.232-.755-10.796-10.034-14.815-12.846-22.056-1.003-.896-1.828-1.402-2.533-1.664 1.113.004 2.14.112 2.79.377 14.274 6.26.4-3.973 10.278-4.257 2.912-.025 5.738-1.67 5.738-3.263-3.956-2.21-3.02-5.51 0-7.658-2.192-2.714-3.688-.029-3.94 1.576-1.126.523-6.626.893-10.877-.641-7.17-.058-11.88-8.996-18.5-9.688zm-1282.2 5.251c3.04 0 1.841 2.408-2.064 4.121-3.539-.067-23.469 3.156-14.423-1.285 4.79-.84 13.042-2.796 16.487-2.836zm508.21 7.23c-1.485 1.95-4.584 2.46-5.652 4.6-.805 4.877 4.747 7.91 1.541 10.038-2.041 1.77-6.831-1.33-3.425 4.257 2.023 3.427-1.809 9.033 1.026 11.35 3.086 2.074 3.087-1.202 5.568-1.26 1.713.668 2.226-.873 2.483-8.24.172-4.89 0-6.038-1.37-7.014-2.264-3.13.313-6.577.342-10.605 0-2.253-.17-3.151-.513-3.125zm-526.46 1.414c-4.498 3.167-21.207 12.121-26.499 9.293-1.262-1.4 4.11-2.848 8.35-5.011 9.186-2.741 9.796-2.546 16.702-4.008.754-.172 1.225-.274 1.447-.274zm1312.9 9.774c-.798.55-1.238 1.695-1.545 2.874-.28-.53-.769-1.019-1.559-1.379-1.431-.6.636-1.243 3.104-1.495zm-697.93 43.62c-1.326.069-2.205.444-2.313 1.297.207 3.644 19.458 5.321 17.558 1.766-3.27-.706-11.268-3.266-15.245-3.062zm624.96 76.727c-1.793-.114-4.093 2.155-5.541 5.996-3.602 11.097 1.034 11.012 3.512 17.886 1.973 2.646 2.58-4.215 2.998-5.364.685-1.945 1.37-6.544 1.541-10.218.572-5.69-.716-8.186-2.51-8.3zm-1297.7 20.92c-1.516.008-2.877.138-3.93.429a286.018 286.018 0 01-6.587 1.714c-5.005 1.056-12.991 7.857-8.934 8.701 14.964-3.891 13.713-2.287 24.512-1.901 9.949 2.741 17.56 8.346 18.49 15.094-.548 1.447 17.507 1.062 21.284-.454l2.543-1.011c-3.467-1.817-11.198-7.522-13.033-8.087-3.623-1.088-8.73-5.413-8.73-7.392 0-.548-.239-.77-.53-.479-6.592.832-14.95-6.492-25.084-6.614zm-502.42 7.909c-1.501.21-3.13.94-2.2 2.087 2.781 3.073 4.273-2.133 2.2-2.087zm-4.854 1.581c-1.102.69-.86 1.64-.482 2.578.996-.894.891-1.873.482-2.578zm13.28 2.243c-1.03.106-2.2 1.246-1.817 2.407.748 1.942 3.171 1.71 3.171-.3.164-1.647-.553-2.19-1.354-2.107zm5.19 4.02c-.918-.031-1.665.095-1.954.398.957 3 5.063 5.35 7.167 3.548 1.836-2.355-2.462-3.855-5.214-3.947zm6.905 7.033c-3.723 1.084-3.704 13.332-.833 9.05 2.041-1.683 4.045-2.338 6.522-3.388-1.493-2.563-3.288-5.32-5.689-5.662zm537.25 1.082c-1.25.002-2.217.103-2.726.331-3.066 1.388-3.254 2.733-.402 2.733 8.723 12.922-7.576 4.29-9.524 7.786 2.084 7.79 14.244 1.551 17.343 5.327l1.765 2.38c4.906-7.718 10.227-6.588 18.413-4.358 4.915-6.278-5.432-9.043-6.638-10.605-2.055-1.72-12.814-3.6-18.232-3.594zm1249 4.274c-2.119.062-4.02.851-4.618 2.758-1.24 2.446 2.214 17.823-.087 14.776-2.74-3.392-3.082-.576-.856 6.311 2.395 4.308 1.932 7.657 3.083 11.032-.1 2.982 3.325 5.667 5.139 9.158 1.884 3.606 3.167 4.3 4.538 2.407 1.456-1.91.772-5.517-1.37-7.384 4.634-4.416 12.807 6.635 12.847 8.104 0 2.364.258 3.177.771 2.38 2.51-1.703 7.096 3.652 4.71-1.06-1.54-2.651.203-3.762.686-6.058-1.548-3.362-.832-2.614.513-4.873.942-.566 1.027-1.148.257-2.57-1.2-2.116-2.654-2.399-2.654-.506-2.526 2.18-8.142-3.032-11.476-2.646-5.007.318-3.268-2.79.343-2.733 0-.857-2.998-2.732-4.454-2.757-2.944-.936-2.367-6.8.17-6.879 4.903-5.431-.101-10.36-.17-15.521.296-2.125-3.84-4.042-7.371-3.939zm-1210.6 6.62c-2.347.042-4.423.777-4.645 2.585 1.071 3.65 14.803 2.41 10.92-1.019-1.31-.957-3.928-1.608-6.275-1.566zm-71.942.297c-3.54-.07-6.104.967-2.399 3.598 5.31 4.439 5.515 1.165 9.635 1.122 3.478-2.71-2.685-4.63-7.236-4.72zm1311.3 43.41c-1.737-.099-3.21.404-3.228 1.637 7.71 15.022-.536 9.969 9.164 19.915 1.422 5.836-.515 5.241-4.027 3.162-.734 2.939-2.25 9.04-5.137 5.806-2.358-2.39-4.665-1.021-5.997 1.448-4.442 3.092-6.732 4.372-6.165 9.687 4.37-.245 6.809-1.434 7.45-2.355 3.129.242 2.917-3.547 4.626-2.622 3.195 3.583.519 8.875 3.939 11.693 3.685 1.509 8.438 7.284 8.65 4.531 1.921-5.056-1.465-10.192.515-10.68 2.216.362 1.658 2.784 2.826 4.385 4.953 1.214.738-19.728-1.457-22.219-.514.291-.599-.832-.17-2.725-4.428-6.345-5.37-5.26-5.654-16.754 1.184-2.91-2.44-4.745-5.335-4.91zm-18.036 5.339c-.258 1.936.999 4.913.856 7.305 8.926 5.493 1.176 5.713 3.855 10.356.96 1.54 2.715 1.747 3.597 3 1.643-4.918 5.818-2.211 9.42-3.505 1.071-6.44-2.796-11.761-7.965-10.63-2.623-.803.046-4.252-2.57-4.282-2.702-.123-4.679-1.803-7.193-2.244zm-14.303 3.34c-3.19 1.68-2.349 5.558-4.453 8.54-.363 5.61-6.477 6.607-9.164 11.641-1.265 1.395-.472 5.702.856 3.4 4.059-2.999 9.364-14.224 13.96-15.359 2.312-.445 2.654-2.157.513-2.706-2.503-1.72-1.33-3.718-.178-4.647-.238-.026-.688-.228-1.534-.87zm1.534.869c.41.044.178-.44.178-.15-.059.043-.118.102-.178.15zm-258.58 11.122c-2.937 4.11-.408 4.342-2.483 5.68 2.457 3.714.72 9.398 1.37 13.353 1.095 6.037 1.92 12.436 8.479 9.209 4.453-2.236 5.566-3.684 5.566-7.333 0-3.486-3.425-11.666-5.652-13.516-3.541-3.307-3.64-6.938-7.28-7.393zm243.87 19.207c-1.588.097-3.385 3.427-5.866 6.25-5.78 10.118-11.341 11.678-18.67 20.557-12.656 2.44-16.98 18.41-22.781 12.5-.685-1.902-3.17-.379-4.797 2.996-1.456 2.853-1.37 5.97 0 13.363 5.692 12.3 4.594 3.363 6.595 16.704 19.483 2.346 6.314 10.83 28.69 10.191.062-.053 11.834-.217 11.905-.402 1.753-6.61.818-15.148 4.968-19.161 8.33-4.447.81-15.33 9.078-14.939 6.103-1.255-13.086-22.785-.772-26.015 7.097-9.107-5.042-12.69-4.796-14.646-1.21-5.595-2.318-7.475-3.554-7.4zm-142.04 11.584c-1.173.064-1.727 1.067-1.11 3.987 6.506 10.667 15.57 16.846 23.381 26.417-.428 1.781 2.911 10.458 4.282 10.92 2.398.823 8.736 12.189 9.25 16.489 3.714 7.938 10.741 15.158 16.53 20.902 7.536 7.443 7.707 7.546 10.361 6.612 10.706-1.458.438 6.067.343 6.586 1.618 2.598 7.676.505 7.795 4.232 6.383 4.91 18.504 2.735 24.495 5.618 2.938 2.345 18.496 2.374 19.612 3.376 5.242.758 13.82 1.641 14.559 1.524 3.528 1.784 7.162 3.241 10.877 3.212 8.85-5.603 26.158-.65 34.514-2.758 4.399-2.808 14.626-.489 17.814-3.16 1.284-1.318-.942-1.585-8.821-1.097-9.321 2.213-23.96.414-28.605 1.85-.026-2.808-5.525-.654-7.536-2.38-11.04 5.228-22.697-1.356-30.233-3.487-12.236-1.559 4.296-3.693 4.11-5.054-.257-.548-2.739-.813-6.421-.693-20.21-5.335-15.922.106-19.784-.3-8.401 2.616-13.038-7.831-20.554-6.665-9.74 3.9-6.125-6.536-5.739-11.804.428-8.745 1.027-10.475 3.083-9.37 9.954 1.33-.273-4.87-1.285-9.687-6.243-2.233-6.502.458-3.082 3.64-4.494 1.9-9.77-8.033-13.276-10.63-3.068-2.546 3.106-6.215.087-9.02-.563-4.717-4.728-3.495-7.366-7.408-1.571-.08-6.25-5.318-6.424-5.354-7.758-2.422-14.194-8.753-19.1-13.602-4.506-3.563-5.708-9.822-12.073-9.85-2.94.125-7.442-3.168-9.683-3.046zm194.85 29.082a.67.67 0 00-.182.01c-7.881 5.987-11.816 9.128-23.21 4.12-3.794-3.534-4.512 1.4-6.85 2.117-7.205 1.256-6.444 25.475-11.22 26.15-2.71 9.318 3.904 5.088 4.196 10.202.516 4.067-1.515 7.9-1.198 11.829 3.007 2.34 6.985-.1 7.107-2.972.171-13.388.685-17.363 2.227-17.851 2.312-.728 2.826.233 1.627 3.265 8.125 11.186 6.427 14.238 9.336 17.447 4.428 3.033 5.426-5.395 5.48-8.78-2.301-2.521-10.129-17.326-8.907-18.784 2.023-1.728 11.042-6.617 11.05-7.204 0-2.304-2.141-3.075-4.796-1.687-6.191 2.268-14.568 11.854-17.13-3.744.857-4.343 1.627-4.573 12.504-3.828 8.3-.077 24.41 1.016 20.899-9.054-.3-.764-.535-1.2-.933-1.235zm48.977 15.266c-6.192 5.723-12.411 2.99-14.13 3.931 2.29 4.694 14.132 11.168 17.385 10.955 7.49 5.439-7.59 3.155-7.965 4.06-.9 2.498 13.046 13.678 10.534 9.456-1.707-3.21 2.778-1.858 3.598-1.473 1.713.823 3.854 2.1 4.71 2.836.856.737 2.74 1.447 4.11 1.601 29.865 5.906 25.533 16.857 12.163 28.404 0 1.25 7.706 1.2 8.648-.051 9.655-4.24 8.692 6.928 17.558 6.878 12.132.119 5.924.006 7.88 4.496 1.938-3.92 9.006-19.22 13.36-15.607 3.177 1.45 9.89 3.649 9.935 7.796 4.698 14.408 26.449 11.877 27.235 11.375-9.1-5.375-12.843-13.868-18.842-19.915-8.73-9.484 2.476-5.711 2.741-8.35-1.05-4.327-4.962-4.166-7.536-6.374-7.75-2.51-2.601-10.272-4.882-8.301-3.447-6.809-36.635-15.44-45.82-20.291-9.291-6.777-9.29 2.205-14.046 2.279-4.433.175-4.763 8.426-9.59 8.565-1.52.383-9.422-7.263-5.396-9.423 1.981-6.728-5.92-11.58-11.65-12.847zm61.116 77.09c-5.609 2.056-10.118 21.7-10.621 26.629-.569 4.505-5.139 24.53-12.076 24.764-11.879-9.325-19.67-13.23-27.577-20.798 8.893-8.434 6.793-8.236 10.705-15.151-11.542-13.484-26.018-8.039-37.426-4.259-7.041 3.933-11.873 18.95-15.072 19.146-13.58-8.691-20.578-8.193-25.693 1.174-18.929 7.87-12.58 8.063-28.864 31.35-10.811 9.83-39.951 8.087-47.788 21.807-3.616-5.7-4.685 6.648-8.051 11.942-4.067 28.213-5.195 1.649-2.57 29.636 1.465 8.907 2.893 42.896-5.652 43.36-11.042 7.358 16.508 15.186 17.215 9.421 10.88-6.32 22.224-6.706 34.085-6.099 11.775-12.514 31.616-16.335 47.105-17.533 9.68-4.464 24.511 13.134 23.04 20.55-2.811 5.793 17.976 4.645 20.81 11.734.903 5.273-4.442 13.186 6.936 17.644 9.851 4.11 20.088-1.97 23.895 5.226 5.948-5.618 30.226-8.201 30.832-14.99 8.117-10.469 18.173-26.188 29.377-32.353 3.012-2.423 10.73-10.628 10.875-13.49 7-18.744 15.721-33.099 16.187-44.884-.086-1.216-.17-1.293-.513-.325-3.541 6.04-12.267-10.237-11.733-14.236-10.278-7.66-2.942-24.113-17.301-26.315-9.67-1.342-2.39-14.165-5.909-19.383-3.138-14.782-9.743-20.225-9.679-21.44-1.994-15.203-.655-11.678-3.852-22.836a1.087 1.087 0 00-.685-.291zm-607.95 9.356a.138.138 0 00-.128.014c-3.966 9.818-11.04 15.88-13.617 20.9-3.512 3.91-13.064 9.943-17.728 9.988-3.138.924-1.933 4.46-3.598 7.143-3.447 14.157 4.866 17.475-4.624 30.622-3.807 3.634-2.863 30.383 4.71 30.76 4.267 3.12 8.209-.654 11.904-.856 6.953-1.51 9.339-17.281 11.992-23.23 2.78-10.822 8.84-20.244 10.62-31.3.86-17.125 15.697-18.875.599-43.923a.31.31 0 00-.129-.117zm751.79 166.24c-.857 0-1.627.429-1.627.942 1.257 3.722.404 20.474-1.029 23.3-3.996 7.737-8.918 8.413-14.56 12.846 3.44 2.378 9.04 8.887.857 10.023-5.208 1.5-4.99-8.273-18.67 2.055-7.891 7.467-19.553 14.043-26.978 17.217-10.74 4.21-21.815 10.226-30.576 16.103-3.34 2.056-3.255 4.883.17 4.883 7 1.576 2.966 6.498 16.959.086 6.368-2.838 11.58-7.473 15.5-11.135 3.683-3.34 7.622-5.224 12.933-5.995 5.31-5.56 15.895-10.305 22.354-17.131 6.937-3.304 6.234 2.84 14.732-3.941 4.893-1.657 13.906-16.17 18.584-13.705 5.004-1.348 18.194-16.7 5.995-10.706-4.93 3.846-8.975-2.247-6.508-5.569 3.59-7.473-6.72.434-4.71-3.682 3.154-5.661 1.456-11.122-3.426-15.59zm-195.55 43.983c-.667.185-2.444 2.821-2.547 2.957-1.959 3.874-7.46 18.87-2.655 20.9 9.691 1.87 18.925-11.227 22.354-16.53 2.57-4.197 1.541-5.14-4.197-3.512-3.953 1.65-12.83 1.378-12.761-2.999.128-.666.03-.877-.194-.816zm-1146.3 160.3c-14.669 2.835-23.589 8.02-28.1 6.425-1.43 6.29-4.485-.538-7.065 3.341-.865 4.571 7.087 1.902-1.07 10.364-7.262 9.896-3.424 2.986-9.208 3.599-4.041 1.09-4.342 7.495-.592 7.537 10.126-.499 7.758 8.426 7.709 11.991-5.157-2.322-10.343-8.067-16.058-5.054 2.325 9.324-11.928 1.427-14.714 6.253 3.515 4.441 3.946 3.102 1.499 6.597 27.564 2.965 1.062 5.497 15.306 7.194 14.383.146 6.436 7.27 6.826 6.253-1.23-4.46-27.528-6.16-27.621-4.625-6.439 11.315-26.248 2.64-34.257 2.227-4.238 1.018-11.663-4.117-15.124-1.628-4.26 1.18-9.534-.11-13.165-.17-12.751-.707-21.367-4.203-30.351-4.284-6.74-.51-12.4.66-18.438 2.913l3.159 2.654c5.701 4.764 8.098 4.817 14.559 9.08 3.143 3.033 13.265 5.11-.377 3.855-7.767 4.922-35.612-14.103-39.934-9.423 9.244 3.495 14.263 6.109 8.298 6.51-28.265 2.387-55.78-6.684-85.19-7.28 1.014 10.055-15.146 6.663-29.6 8.652-3.429 1.342-10.595 1.121-10.114 2.654-5.878 5.83-15.027-1.525-24.81 3.255-10.787 8.302-7.284 8.326-23.022 7.624-12.522 3.16-14.318 2.412-36.792 9.68 23.569 11.82 60.85 25.354 103.07 39.402l11.56 3.51h627.77l627.77.087c39.773-10.638 79.364-26.295 115.62-41.116 4.711-1.97 16.358-4.967-6.852-5.224-12.949 2.497-44.715-8.99-54.984-5.226-10.164-1.95-25.019 4.489-27.234 1.884-.856-1.456 3.94-5.31 10.362-8.479 17.106-2.517 33.496-14.31 49.161-14.305 4.747.047 26.116-9.6 27.834-11.735 1.15-2.104-14.852-6.738-18.413-6.854-7.879-.601-12.785-1.968-17.985-6.422-12.134-1.733-13.098-5.33-13.789-5.996-5.624-1.138-16.097-1.502-22.867-1.2-13.452-9.824-31.614-12.175-46.506-13.02-10.03-.68 3.695-8.943-2.996-9.08-1.285 0-5.054 3.426-6.167 5.653-6.214 4.783-15.756.464-24.152 2.74-25.952.292-26.526.122-49.76 3.513-10.362 1.107-21.164.207-27.15-5.31-14.953 4.493-37.296.25-50.014.256-15.117-1.492-15.343-7.614-19.612-11.649-9.063 2.195-16.847 6.963-27.15 14.391-6.359.92-28.153 3.524-28.605.084-4.076-8.063-29.161 1.661-37.683 5.569-13.232 6.467-27.893 9.862-40.938 14.56-6.776 1.567-20.27-8.545-19.528-10.365-12.516-2.993-35.36-1.449-51.985-5.054-11.888-2.067-5.004-8.85-21.412-8.136-28.176 6.797-45.378 15.084-71.341 18.586-10.537 3.322-12.788 4.777-24.152 0-6.427-.624-13.86-.177-20.211 1.8-17.175 6.794-44.25 8.818-59.267 4.97-18.306-6.514-43.597.833-52.328 1.112-2.613 1.602-38.38-1.612-39.14-1.029-1.627 1.628-18.842 3.512-34.258 3.769-11.89 2.162-19.567 6.433-28.176 11.222-12.33 5.66-13.308-2.083-19.442 7.71-5.867 6.088-10.581 3.205-18.243 5.995 3.889 4.33 2.285 4.908-7.965 6.852-8.618 3.358-17.423 6.001-26.12 10.193-3.512 1.97-4.455 2.142-12.248 1.714-12.677-3.018-25.406.913-37.373-.113 1.252-.885-11.617-3.57-18.64-4.512-14.322-2.198-27.005-5.809-41.536-8.223-14.645-2.398-25.008-5.995-22.182-7.88.653-1.433 1.657-8.708 1.112-8.738-6.118-6.156-21.047-12.387-21.324-22.87.122-2.755 3.93-1.803 3.561-4.111-4.823-5.289-6.111-4.956-10.276-10.793-4.323-9.285 8.677-11.756 10.491-14.99-6.185-10.1 20.54-3.692-.059-9.337z"/>
    </symbol>

    <mask id="earth-outline">
      <circle cx="1000" cy="500" r="250" fill="white" />
    </mask>

    <filter id="atmosphere-filter">
      <feDropShadow dx="0" dy="0" stdDeviation="15" flood-color="rgb(125, 125, 255)" />
    </filter>

    <filter id="edge-filter">
      <feGaussianBlur stdDeviation="20" />
    </filter>

    <filter id="shade-filter">
      <feGaussianBlur stdDeviation="50" />
    </filter>
    
    <pattern id="stars-1" x="0" y="0" width="125" height="125" patternUnits="userSpaceOnUse">
      <circle cx="10" cy="10" r="2" fill="white" />
    </pattern>
    
    <pattern id="stars-2" x="0" y="0" width="150" height="150" patternUnits="userSpaceOnUse">
      <circle cx="10" cy="10" r="2" fill="white" />
    </pattern>
    
    <pattern id="stars-3" x="0" y="0" width="175" height="175" patternUnits="userSpaceOnUse">
      <circle cx="10" cy="10" r="3" fill="white" />
    </pattern>
    
    <pattern id="stars-4" x="0" y="0" width="250" height="250" patternUnits="userSpaceOnUse">
      <circle cx="10" cy="10" r="5" fill="white" />
    </pattern>
    
    <pattern id="stars-5" x="0" y="0" width="400" height="400" patternUnits="userSpaceOnUse">
      <circle cx="10" cy="10" r="7" fill="white" />
    </pattern>
    
    <pattern id="stars-6" x="0" y="0" width="600" height="600" patternUnits="userSpaceOnUse">
      <circle cx="10" cy="10" r="9" fill="white" />
    </pattern>
  </defs>
  
  <rect x="0" y="0" height="100%" width="100%" fill="black" />
  
  <g>
    <rect x="-1000" y="-1000" height="4000" width="4000" fill="url(#stars-1)" transform="rotate(6, 1000, 500)" />
    <rect x="-1000" y="-1000" height="4000" width="4000" fill="url(#stars-2)" transform="rotate(33, 1000, 500)" />
    <rect x="-1000" y="-1000" height="4000" width="4000" fill="url(#stars-3)" transform="rotate(15, 1000, 500)" />
    <rect x="-1000" y="-1000" height="4000" width="4000" fill="url(#stars-4)" transform="rotate(-5, 1000, 500)" />
    <rect x="-1000" y="-1000" height="4000" width="4000" fill="url(#stars-5)" transform="rotate(9, 1000, 500)" />
    <rect x="-1000" y="-1000" height="4000" width="4000" fill="url(#stars-6)" transform="rotate(17, 1000, 500)" />
  </g>
  
  <circle cx="50%" cy="50%" r="250" filter="url(#atmosphere-filter)" />
  
  <g mask="url(#earth-outline)">
    <rect x="0" y="0" height="100%" width="100%" fill="blue" />
    
    <g fill="green">
      <use href="#map" x="650" y="250" height="50%" width="50%" />
      <use href="#map" x="1450" y="250" height="50%" width="50%" />

      <animateTransform attributeName="transform" type="translate" from="0 0" to="-800 0" dur="30s" repeatCount="indefinite" />
    </g>
    
    <circle cx="30%" cy="50%" r="500" filter="url(#shade-filter)" opacity="0.33" />
    <circle cx="20%" cy="50%" r="500" filter="url(#shade-filter)" opacity="0.5" />
  
    <circle cx="50%" cy="50%" r="250" fill="none" stroke="black" stroke-width="25" opacity="0.5" filter="url(#edge-filter)" />
  </g>
</svg>
