<svg width="500" height="250" viewBox="0 0 2000 1000" xmlns="http://www.w3.org/2000/svg">
  <defs>
    <symbol id="map">
      <path d="M1022,20C1021,20,1019,20,1017,20C1013,20,1008,20,1004,21C996,21,985,22,978,22C956,22,924,27,905,27C895,21,878,23,869,23C843,22,820,26,796,27C774,29,777,28,768,31C757,35,745,33,754,45C771,49,764,50,761,53C751,56,747,53,739,53C735,50,723,55,726,55C726,62,718,62,719,55C712,57,709,57,693,55C691,55,688,58,689,58C693,62,703,65,705,65C717,59,715,68,717,68C727,68,734,58,739,59C740,61,731,65,734,66C741,67,769,68,771,67C775,67,792,68,793,62C777,62,744,66,753,58C769,53,783,59,796,60C797,58,809,55,809,53C814,47,826,47,830,46C837,41,843,40,849,39C860,36,867,35,878,38C878,39,874,41,866,41C861,42,832,42,834,51C856,66,853,53,879,59C900,63,876,77,882,85C878,95,875,107,874,113C878,116,872,121,874,132C873,138,881,148,882,153C891,153,902,163,907,159C909,156,912,153,914,150C918,144,922,139,929,136C930,130,938,126,939,123C946,119,951,125,955,121C964,121,973,110,979,108C989,103,1004,106,1018,100C1026,98,1033,92,1038,87C1031,79,1034,80,1052,69C1056,68,1061,66,1064,64C1057,57,1065,54,1065,53C1063,34,1064,39,1092,31C1101,29,1099,28,1087,28C1073,28,1058,25,1048,22C1044,21,1034,20,1022,20Z
M1378,27C1376,27,1373,28,1370,30C1366,29,1359,35,1356,35C1354,36,1358,36,1359,36C1365,35,1361,34,1366,36C1370,36,1385,39,1395,33C1390,31,1384,30,1380,30C1380,29,1380,27,1378,27Z
M1528,31C1520,31,1512,34,1515,38C1523,39,1554,47,1557,43C1550,37,1535,38,1538,34C1537,32,1532,31,1528,31Z
M1346,32C1346,32,1345,32,1345,32C1339,36,1337,32,1328,33C1324,36,1347,37,1351,38C1354,35,1349,36,1352,33C1350,32,1348,32,1346,32Z
M1226,34C1222,34,1219,34,1217,36C1191,36,1187,37,1187,39C1192,47,1190,45,1208,54C1213,56,1215,56,1216,53C1220,44,1236,47,1231,50C1228,54,1245,52,1247,49C1240,47,1218,44,1233,41C1232,43,1260,40,1254,36C1248,36,1235,34,1226,34Z
M1563,40C1562,40,1561,40,1561,40C1560,43,1560,46,1561,48C1563,48,1580,46,1582,46C1585,44,1569,40,1563,40Z
M1582,49C1580,49,1579,49,1578,49C1575,50,1573,53,1575,55C1574,56,1562,58,1561,57C1562,56,1546,57,1544,59C1537,61,1529,62,1522,64C1521,68,1517,64,1516,67C1515,69,1522,68,1525,70C1519,73,1506,71,1499,72C1504,78,1518,83,1516,83C1506,83,1479,71,1475,75C1477,81,1487,75,1476,85C1481,88,1485,93,1487,99C1489,101,1502,99,1496,100C1492,104,1495,107,1495,112C1494,114,1489,117,1487,117C1480,115,1485,115,1487,112C1490,108,1490,104,1486,102C1482,100,1479,95,1478,91C1469,83,1472,80,1471,79C1469,77,1458,76,1461,76C1468,75,1454,71,1455,74C1454,77,1452,84,1450,85C1444,90,1452,89,1452,93C1452,98,1467,100,1465,104C1453,101,1440,96,1427,95C1423,96,1415,89,1412,92C1412,97,1422,97,1425,100C1427,102,1422,105,1420,103C1417,99,1413,102,1405,103C1404,105,1393,105,1396,101C1393,99,1387,103,1384,103C1380,103,1377,107,1373,107C1368,108,1371,116,1359,113C1354,110,1359,109,1362,108C1357,102,1340,100,1346,104C1351,106,1347,111,1350,113C1357,118,1346,119,1344,115C1342,115,1340,118,1337,119C1335,120,1333,121,1331,123C1340,133,1331,127,1318,125C1313,130,1323,130,1325,132C1326,134,1320,133,1316,131C1312,130,1310,128,1308,126C1306,117,1304,120,1300,116C1300,115,1301,116,1307,117C1325,120,1330,120,1335,116C1342,113,1329,104,1327,106C1323,104,1318,102,1314,101C1308,98,1299,100,1294,96C1290,94,1283,95,1279,95C1281,94,1283,93,1284,92C1281,91,1271,87,1268,87C1261,89,1259,85,1256,87C1253,89,1240,88,1241,91C1238,93,1233,94,1233,94C1231,92,1225,93,1225,95C1225,96,1225,96,1222,96C1217,100,1205,100,1206,104C1206,106,1199,104,1198,107C1201,109,1202,106,1205,106C1210,108,1200,117,1198,118C1194,122,1189,128,1189,128C1182,135,1178,133,1177,135C1172,140,1166,141,1161,144C1158,146,1158,146,1158,152C1159,157,1160,165,1160,165C1164,171,1171,175,1177,171C1179,170,1182,168,1184,167C1186,166,1187,165,1187,164C1188,162,1191,168,1191,169C1192,173,1195,177,1197,180C1200,182,1200,184,1198,186C1192,185,1190,188,1189,186C1192,182,1184,182,1187,180C1188,179,1188,174,1187,174C1185,176,1182,178,1180,178C1175,178,1172,187,1175,191C1177,193,1175,194,1175,196C1177,198,1177,203,1173,203C1169,202,1166,205,1163,204C1159,204,1155,206,1154,209C1154,214,1148,219,1142,221C1138,222,1137,223,1137,226C1136,231,1130,229,1128,232C1124,236,1117,226,1117,232C1118,238,1118,239,1115,239C1110,238,1105,237,1101,239C1098,242,1101,245,1103,245C1115,246,1121,262,1117,273C1116,276,1114,278,1111,277C1101,274,1092,278,1082,275C1079,274,1070,279,1071,282C1071,283,1072,287,1072,290C1072,298,1070,302,1067,307C1066,315,1070,316,1069,322C1070,329,1081,319,1084,327C1089,335,1088,330,1085,337C1082,344,1080,347,1074,349C1065,353,1066,357,1062,363C1056,377,1064,383,1041,391C1039,392,1026,409,1026,411C1020,422,1013,431,1010,443C1011,446,1014,443,1015,457C1016,469,1011,482,1006,489C1015,496,1007,503,1013,509C1020,517,1022,519,1028,525C1031,528,1035,538,1035,542C1043,547,1050,553,1055,557C1066,567,1068,568,1076,564C1081,562,1083,561,1089,561C1097,560,1100,561,1104,563C1111,564,1117,556,1124,556C1130,553,1136,552,1142,552C1148,551,1154,555,1155,562C1158,570,1167,566,1174,565C1183,566,1185,580,1181,587C1180,589,1181,605,1177,603C1174,613,1198,630,1198,640C1205,650,1204,667,1206,672C1208,677,1209,680,1209,683C1203,692,1203,707,1196,715C1192,732,1202,741,1207,753C1214,766,1213,778,1216,793C1218,805,1242,833,1233,841C1235,852,1238,850,1243,855C1244,857,1246,857,1248,855C1255,849,1270,852,1277,851C1286,849,1297,845,1303,837C1313,833,1315,814,1324,812C1334,797,1328,788,1338,784C1352,774,1344,759,1344,749C1346,745,1365,728,1368,726C1375,724,1381,717,1384,710C1385,703,1383,695,1383,688C1384,668,1380,675,1378,667C1378,656,1376,651,1373,643C1375,627,1387,618,1393,608C1397,601,1409,588,1416,584C1420,581,1434,566,1434,564C1441,552,1451,539,1451,525C1455,521,1454,505,1448,510C1440,516,1422,515,1415,519C1397,526,1402,506,1399,503C1386,486,1376,487,1374,478C1371,462,1360,460,1360,447C1356,429,1350,425,1343,412C1344,408,1328,385,1328,383C1329,379,1334,393,1338,393C1339,392,1341,391,1342,391C1346,393,1348,398,1350,402C1353,405,1360,419,1361,419C1365,420,1369,430,1369,433C1366,442,1383,453,1383,457C1384,460,1395,473,1387,472C1392,483,1399,483,1400,499C1403,514,1414,500,1420,499C1441,499,1455,473,1473,473C1496,458,1503,452,1504,432C1497,423,1480,420,1480,408C1480,402,1479,401,1477,405C1457,435,1447,420,1448,405C1433,404,1436,398,1430,391C1419,378,1429,377,1435,376C1441,379,1442,390,1449,393C1462,399,1462,403,1473,401C1477,401,1479,396,1482,399C1485,407,1489,409,1496,410C1509,412,1525,413,1537,411C1547,407,1549,422,1554,422C1566,430,1559,429,1562,433C1562,434,1573,445,1575,445C1590,439,1584,442,1588,454C1591,464,1593,474,1597,483C1600,489,1603,495,1605,501C1607,510,1616,518,1616,527C1616,530,1621,537,1623,538C1631,539,1629,529,1636,531C1640,531,1634,529,1636,525C1644,523,1637,512,1640,508C1642,506,1642,499,1640,493C1639,483,1639,481,1643,482C1644,482,1652,474,1652,474C1654,468,1662,464,1666,458C1669,454,1673,452,1677,449C1681,446,1677,443,1680,440C1685,436,1689,439,1694,438C1701,435,1703,436,1705,431C1707,432,1709,435,1709,437C1707,441,1723,453,1722,454C1722,464,1725,455,1729,464C1731,470,1730,473,1729,480C1735,483,1746,478,1747,473C1747,470,1752,482,1753,486C1754,490,1764,514,1757,511C1758,515,1768,517,1758,517C1761,521,1761,526,1760,531C1759,534,1760,542,1761,541C1765,539,1767,543,1770,547C1772,557,1775,548,1775,558C1774,564,1781,573,1782,576C1782,577,1783,579,1788,582C1790,589,1800,589,1801,593C1801,595,1808,590,1802,589C1802,589,1801,586,1801,585C1795,576,1798,569,1795,562C1795,560,1782,547,1781,547C1777,543,1772,527,1771,525C1764,535,1767,518,1768,514C1770,510,1769,499,1772,499C1777,500,1773,505,1778,505C1783,506,1789,511,1790,516C1790,518,1793,521,1795,521C1793,522,1806,523,1803,525C1802,526,1802,535,1804,535C1809,534,1816,522,1817,522C1822,521,1824,516,1829,515C1833,509,1830,503,1829,497C1829,493,1823,479,1819,478C1818,477,1807,467,1807,466C1805,462,1802,459,1802,455C1802,450,1814,437,1819,439C1821,440,1825,439,1824,441C1824,442,1824,443,1825,444C1820,445,1818,454,1822,457C1831,460,1831,453,1834,447C1835,444,1833,443,1830,444C1830,442,1830,441,1834,440C1836,436,1849,439,1848,432C1847,428,1853,438,1853,434C1856,430,1865,430,1867,427C1868,423,1880,418,1878,414C1881,412,1885,398,1885,395C1888,385,1892,381,1889,372C1884,377,1887,370,1884,363C1881,359,1877,358,1874,354C1871,348,1867,344,1863,342C1859,340,1859,340,1859,338C1860,329,1873,327,1873,323C1877,322,1855,317,1857,319C1856,324,1851,323,1850,320C1849,313,1838,317,1838,310C1841,306,1848,307,1851,299C1853,293,1861,297,1859,301C1858,303,1860,312,1860,312C1860,312,1862,310,1864,308C1868,304,1876,303,1881,306C1883,306,1883,318,1884,317C1885,315,1901,323,1896,324C1895,324,1896,325,1898,328C1902,332,1902,333,1902,334C1900,337,1903,339,1903,342C1903,344,1903,344,1907,344C1911,343,1920,340,1920,336C1920,332,1915,323,1911,319C1908,313,1900,311,1896,306C1894,301,1906,299,1903,293C1898,277,1915,283,1919,282C1922,281,1926,275,1926,273C1932,267,1929,249,1931,242C1932,239,1928,229,1926,227C1922,225,1919,216,1921,216C1928,220,1935,228,1938,235C1940,239,1945,242,1946,246C1949,251,1951,256,1956,260C1955,257,1954,254,1957,254C1959,254,1962,258,1962,257C1962,255,1960,252,1958,252C1950,247,1949,244,1946,236C1948,232,1957,240,1957,238C1955,236,1951,234,1948,231C1946,229,1941,224,1937,221C1931,215,1917,198,1913,198C1912,199,1912,199,1915,201C1919,217,1912,206,1901,200C1888,199,1866,200,1873,191C1876,186,1878,184,1877,183C1877,180,1882,165,1884,165C1887,164,1899,163,1899,164C1900,165,1901,165,1902,165S1903,165,1903,165C1903,164,1906,164,1909,164C1918,166,1915,161,1917,161C1925,160,1931,167,1932,167C1936,167,1957,165,1944,162C1938,160,1942,148,1946,148C1950,143,1961,153,1962,153C1979,158,1969,142,1969,142C1975,140,1974,149,1978,150C1979,154,1974,160,1975,165C1975,169,1972,174,1969,174C1967,177,1969,176,1971,180C1971,184,1975,190,1985,198C1992,206,1986,201,2000,212C2004,214,2011,226,2014,220C2017,215,2009,210,2017,207C2018,205,2011,202,2012,199C2017,190,2003,184,2014,187C2015,186,2011,182,2010,182C2004,180,2003,172,1998,173C1993,175,1989,160,1990,160C1998,153,2024,162,2023,158C2020,145,2049,144,2049,142C2046,137,2029,134,2028,129C2032,120,2026,123,2023,119C2033,120,2046,127,2056,128C2061,129,2072,131,2073,130C2063,121,2070,123,2081,124C2067,112,2045,116,2032,110C2028,108,1989,98,1977,96C1972,96,1966,95,1962,95C1944,95,1945,97,1924,96C1917,96,1901,96,1900,96C1883,91,1876,87,1860,88C1836,88,1815,80,1792,78C1772,74,1774,79,1775,80C1788,87,1779,84,1769,84C1769,87,1747,83,1748,84C1753,95,1735,84,1732,82C1723,74,1711,74,1699,71C1692,70,1694,72,1697,75C1677,75,1678,72,1652,72C1646,70,1642,67,1639,64C1638,57,1620,55,1615,55C1601,54,1596,50,1582,49Z
M646,50C639,50,608,56,608,59C610,58,632,65,634,66C637,71,646,67,648,67C653,66,661,65,666,65C677,65,692,58,673,58C676,54,673,54,669,55C662,57,666,61,660,61C654,61,654,57,648,56C639,56,647,53,648,52C653,51,647,50,646,50Z
M1431,53C1428,53,1426,54,1424,55C1418,58,1400,55,1396,59C1395,61,1386,62,1386,64C1383,73,1380,74,1375,83C1377,88,1405,94,1406,90C1406,92,1387,84,1394,78C1397,76,1400,68,1405,67C1412,63,1418,61,1424,60C1439,57,1442,55,1435,53Z
M1745,58C1742,58,1739,58,1739,60C1739,62,1742,64,1752,66C1759,67,1776,66,1777,62C1772,58,1766,60,1758,58C1756,58,1750,58,1745,58Z
M604,67C596,67,587,69,582,72C576,75,565,78,561,82C595,88,594,92,554,96C560,91,527,101,530,93C522,85,480,106,480,97C471,88,424,98,419,88C396,88,359,90,338,106C351,118,329,116,328,116C325,117,300,121,305,123C308,135,316,130,326,130C326,134,307,138,304,137C296,138,287,145,280,147C260,166,295,159,274,168C270,172,288,166,288,169C314,162,272,182,258,187C235,190,229,191,224,198C229,199,251,190,253,194C264,192,275,183,286,181C288,178,332,160,332,165C337,163,358,162,363,159C372,161,374,160,383,160C396,159,407,172,401,179C405,186,396,195,404,196C407,196,412,211,410,215C413,226,402,225,402,226C397,226,416,242,413,241C410,241,410,242,407,248C406,253,401,262,399,264C389,273,385,287,378,296C376,298,374,310,374,312C376,323,377,330,377,340C393,349,390,356,393,370C393,376,396,380,399,384C400,385,397,394,401,400C411,405,406,409,405,415C411,419,415,427,417,429C426,426,418,421,416,412C416,408,412,395,409,393C410,379,409,386,404,378C402,374,403,363,407,365C414,367,412,370,413,375C414,388,410,381,417,389C422,397,426,403,425,407C434,419,444,426,444,440C444,446,440,448,443,453C450,461,472,475,478,475C493,484,495,480,506,479C510,479,514,482,517,486C523,493,525,495,530,496C544,499,559,510,560,521C565,523,574,536,574,536C583,538,590,547,594,545C596,535,602,533,610,544C615,553,613,576,607,579C601,582,603,589,598,591C591,591,591,614,589,614C590,622,590,621,590,626C584,629,589,644,592,646C599,651,604,660,607,668C609,673,624,699,624,700C628,720,661,723,667,739C668,752,673,801,671,811C674,831,678,843,675,866C672,879,679,896,682,910C685,922,687,936,687,944C699,971,716,987,725,996C735,999,739,1006,753,1006C763,1010,766,1004,768,1003C780,999,762,1000,751,990C748,984,738,978,738,972C746,965,739,962,746,956C754,947,736,945,733,941C746,932,733,920,746,916C742,903,735,914,734,901C748,908,755,899,748,890C744,885,769,892,773,880C776,872,772,860,765,856C762,855,760,850,763,853C780,856,787,863,792,848C795,839,805,830,807,822C808,817,811,813,813,811C817,807,811,787,814,787C826,778,832,770,847,769C851,770,858,761,858,760C860,757,866,732,866,732C870,727,864,695,870,695C874,685,887,673,891,664C893,653,892,646,888,637C878,635,875,633,870,628C852,619,837,617,825,607C818,609,807,602,799,599C792,595,786,581,785,572C785,566,765,551,754,554C741,555,740,546,736,541C733,537,721,534,723,532C718,527,724,517,722,518C708,521,707,517,698,523C696,519,675,521,675,518C669,511,665,505,663,508C660,518,653,521,656,507C652,507,638,517,634,516C630,515,625,522,626,527C624,530,617,533,617,536C610,532,605,525,596,530C584,536,581,528,575,517C575,511,579,491,581,488C581,482,566,478,562,480C557,482,549,480,545,480C545,465,565,450,563,440C561,436,542,439,540,443C531,467,516,462,505,459C501,457,494,438,495,432C500,413,505,393,518,386C524,381,540,375,547,381C573,384,564,366,582,375C595,387,598,370,598,389C598,390,597,392,597,393C599,402,602,409,607,413C618,412,613,385,612,382C609,371,616,361,625,356C629,353,644,342,649,342C662,330,669,320,668,311C668,310,668,308,668,308C669,308,669,308,669,309C669,311,670,311,674,307C676,306,678,303,678,301C679,299,680,298,684,297C690,296,695,294,693,294C708,293,703,285,704,284C707,278,713,275,718,273C727,273,737,261,746,263C742,267,730,270,735,276C748,277,753,266,767,264C771,261,777,260,778,257C773,255,778,253,776,251C762,259,757,255,751,251C755,244,761,234,753,235C744,237,748,235,745,232C752,226,764,228,770,228C794,231,796,220,806,219C811,219,807,221,805,223C788,241,779,246,794,247C816,248,815,248,813,249C812,263,824,248,822,244C818,244,816,239,821,236C823,234,820,233,820,231C812,235,813,229,807,228C814,222,813,225,815,220C808,218,817,216,819,210C819,200,812,193,801,191C801,177,795,172,797,154C797,156,789,161,788,162C785,165,775,172,772,170C765,165,767,158,772,153C764,149,764,150,757,142C749,143,733,138,732,147C716,165,719,161,720,175C720,177,717,184,715,185C708,190,701,193,692,195C695,205,678,227,677,218C665,215,686,198,680,192C666,195,660,183,651,180C645,178,642,178,636,179C636,179,637,175,638,171C637,167,630,169,641,156C641,156,643,154,646,152C657,145,670,141,681,134C688,130,693,136,698,136C706,140,699,138,711,135C719,129,718,138,728,135C728,124,740,106,747,104C748,96,764,96,757,106C772,104,760,108,762,111C780,109,782,111,775,116C778,124,740,124,744,130C759,130,769,126,770,137C773,143,801,151,800,147C795,149,792,139,799,140C805,144,804,142,809,137C797,123,807,121,816,126C824,124,831,120,837,115C832,110,819,107,814,102C834,87,788,83,794,76C794,74,791,72,784,72C774,72,768,72,757,71C751,69,735,74,728,80C717,88,721,96,728,93C707,123,707,90,706,83C710,79,736,72,735,70C731,69,727,69,723,69C721,69,711,71,709,73C703,75,704,81,698,83C693,85,688,90,686,92C674,97,667,101,662,106C660,107,659,108,650,108C637,107,634,104,648,103C651,100,663,98,663,94C663,93,659,91,655,90C651,86,669,74,670,73C669,71,649,75,648,76C640,87,646,80,643,77C635,75,625,80,620,72C617,68,611,67,604,67Z
M704,70C692,71,691,70,685,72C684,80,678,74,673,76C671,81,679,81,679,85C684,88,693,85,699,80C702,77,705,73,704,70Z
M1058,116C1050,117,1038,121,1038,120C1034,124,1031,120,1027,118C1022,114,1018,119,1014,122C1014,124,1031,124,1019,126C1015,126,1014,127,1015,128C1022,128,1027,127,1019,133C1019,134,1020,134,1023,134C1031,135,1038,138,1045,136C1050,134,1068,129,1068,124C1061,121,1065,116,1062,117C1061,116,1059,116,1058,116Z
M1252,122C1254,122,1256,122,1257,122C1263,124,1254,129,1250,133C1244,140,1243,144,1243,152C1243,159,1247,157,1252,160C1252,161,1254,161,1258,160C1264,159,1269,157,1274,156C1284,156,1282,158,1279,162C1279,163,1275,163,1266,162C1255,163,1259,170,1252,165C1250,166,1247,169,1248,171C1248,177,1244,171,1244,187C1244,191,1243,194,1240,194C1240,196,1233,201,1232,196C1234,194,1221,195,1219,197C1216,199,1205,202,1205,197C1201,194,1191,203,1191,200C1197,193,1198,198,1198,191C1201,186,1199,191,1204,192C1207,192,1208,191,1208,190C1215,186,1218,184,1220,185C1221,184,1223,178,1223,177C1219,182,1221,175,1221,170C1225,167,1239,161,1228,156C1219,152,1223,152,1223,146C1225,141,1231,136,1236,135C1242,132,1244,125,1246,123C1248,122,1250,122,1252,122Z
M1117,163C1116,163,1115,164,1114,166C1111,171,1106,167,1103,171C1101,176,1097,174,1096,176C1096,179,1094,181,1093,183C1102,185,1098,185,1095,188C1098,189,1102,196,1103,197C1111,194,1108,197,1111,199C1113,204,1110,206,1106,205C1102,205,1106,206,1101,210C1113,211,1091,217,1103,218C1107,218,1110,220,1107,220C1103,222,1097,226,1095,229C1097,229,1108,227,1109,226C1112,225,1121,224,1126,224C1129,224,1137,222,1137,220C1130,216,1141,215,1138,210C1129,203,1132,213,1129,201C1128,197,1123,197,1122,193C1121,190,1119,187,1118,187C1115,185,1119,180,1121,178C1123,176,1121,175,1116,175C1114,175,1109,175,1111,173C1119,170,1119,163,1117,163Z
M1090,191C1087,191,1085,192,1083,194C1083,201,1075,197,1073,200C1073,203,1072,205,1074,206C1080,208,1065,216,1071,217C1072,220,1080,219,1084,216C1088,214,1093,215,1094,211C1095,203,1100,197,1098,194C1096,192,1093,192,1090,191Z
M629,239C637,239,636,245,635,253C632,254,630,251,624,254C619,244,607,252,595,251C609,241,610,243,623,239C625,239,627,239,629,239Z
M1353,250C1351,252,1346,252,1346,254C1347,257,1348,256,1346,260C1345,262,1347,262,1343,263C1346,264,1354,271,1358,275C1361,277,1365,279,1367,280C1370,282,1371,283,1372,285C1374,289,1374,290,1370,292C1368,294,1365,294,1360,294C1355,295,1337,290,1335,288C1334,287,1333,286,1327,287C1322,288,1319,288,1316,290C1311,295,1301,295,1295,291C1293,290,1290,283,1291,282C1293,279,1296,268,1298,268C1302,265,1302,255,1307,254C1309,254,1310,255,1310,256C1313,259,1318,257,1321,259C1320,260,1315,263,1316,263C1324,265,1321,269,1324,270C1329,269,1332,266,1337,266C1342,265,1336,263,1335,262C1333,262,1331,260,1330,259C1332,256,1335,254,1337,253C1341,253,1345,251,1349,251L1353,250Z
M1431,252C1436,252,1438,265,1435,263C1431,262,1425,261,1425,267C1423,269,1420,268,1421,270C1423,272,1429,275,1429,279C1441,286,1437,284,1438,290C1442,293,1441,289,1443,288C1447,288,1451,295,1452,296C1446,299,1449,296,1446,296C1442,296,1442,296,1441,298C1443,305,1450,310,1451,316C1453,326,1451,325,1442,327C1436,327,1422,319,1421,314C1423,304,1421,305,1428,300C1424,296,1419,293,1415,289C1408,281,1407,280,1407,277C1407,274,1405,271,1402,270C1408,258,1427,253,1430,252C1431,252,1431,252,1431,252Z
M629,258C619,264,615,279,609,286C605,290,602,291,602,288C605,273,614,259,629,258Z
M652,259C653,259,655,260,655,261C657,267,653,271,650,266C645,263,643,276,639,278C636,274,645,264,630,275C637,265,639,268,634,260C642,259,648,259,652,259Z
M1205,261C1206,261,1206,261,1205,261C1208,275,1230,281,1241,289C1240,294,1244,307,1245,307C1249,308,1248,312,1247,314C1247,321,1253,316,1255,324C1261,326,1263,325,1264,331C1269,322,1262,322,1266,322C1266,320,1272,316,1275,321C1280,316,1257,306,1261,300C1263,300,1270,305,1270,300C1266,293,1285,296,1282,300C1277,304,1279,308,1281,309C1291,309,1275,319,1287,320C1292,321,1288,325,1288,327C1295,325,1293,330,1293,332C1298,333,1295,326,1298,327C1302,329,1311,333,1311,327C1310,324,1317,326,1321,330C1322,331,1323,331,1325,331C1324,331,1324,332,1323,332C1321,332,1321,334,1324,336C1328,338,1329,335,1333,333C1333,331,1336,329,1335,328C1335,328,1334,328,1333,328C1335,326,1336,326,1339,327C1344,327,1341,327,1343,336C1344,337,1345,342,1344,343C1343,344,1340,354,1339,359C1338,367,1328,369,1324,366C1321,363,1311,364,1308,368C1300,372,1291,362,1282,364C1276,360,1268,359,1262,355C1261,353,1253,355,1249,358C1250,368,1254,377,1237,371C1234,369,1228,367,1225,367C1213,354,1207,359,1196,353C1186,354,1180,342,1191,342C1193,342,1190,333,1190,333C1193,324,1187,326,1187,324C1186,321,1182,321,1179,323C1172,320,1159,329,1155,326C1152,324,1150,324,1138,326C1129,328,1123,330,1123,332C1123,332,1122,332,1122,332C1116,332,1111,342,1105,337C1101,336,1096,338,1093,336C1086,329,1097,327,1103,326C1111,329,1111,322,1116,321C1118,320,1126,311,1124,310C1119,305,1131,294,1133,294C1143,290,1144,288,1143,281C1143,277,1152,276,1158,279C1164,282,1171,274,1176,270C1190,270,1185,280,1185,282C1191,280,1197,293,1204,293C1210,295,1219,303,1220,307C1223,315,1211,316,1206,316C1201,315,1199,316,1199,318C1202,319,1210,326,1213,327C1219,327,1214,316,1219,317C1223,317,1230,308,1226,305C1223,302,1229,299,1233,303C1234,304,1235,304,1235,303C1233,293,1222,294,1222,288C1210,289,1209,278,1202,273C1198,271,1198,263,1201,261C1202,261,1204,261,1205,261Z
M1955,261C1948,267,1963,266,1961,275C1961,284,1952,278,1957,286C1957,285,1961,288,1962,290C1963,292,1964,292,1966,291C1965,299,1974,305,1970,311C1963,324,1962,313,1959,315C1956,319,1965,319,1959,323C1957,325,1960,327,1959,328C1956,329,1954,328,1951,328C1949,329,1940,328,1940,330C1936,334,1934,338,1931,342C1928,345,1926,346,1928,349C1933,351,1934,354,1936,360C1938,362,1940,363,1942,362C1945,357,1944,353,1943,347C1943,343,1953,354,1951,349C1951,340,1958,351,1957,341C1958,336,1962,344,1964,345C1968,340,1968,339,1974,336C1980,337,1976,329,1979,334C1984,340,1980,328,1985,333C1989,336,1989,327,1988,326C1985,321,1987,316,1984,313C1980,309,1983,310,1985,309C1985,298,1975,294,1972,287C1971,286,1971,285,1970,285C1971,285,1972,285,1973,285C1987,292,1973,281,1983,281C1986,281,1989,279,1989,278C1985,276,1986,272,1989,270C1987,267,1985,270,1985,272C1984,272,1978,273,1974,271C1967,271,1962,262,1955,261Z
M673,267C676,267,675,269,671,271C668,271,648,274,657,269C662,269,670,267,673,267Z
M1181,274C1180,276,1177,276,1176,278C1175,283,1181,286,1177,288C1175,290,1170,287,1174,293C1176,296,1172,302,1175,304C1178,306,1178,303,1180,303C1182,303,1183,302,1183,295C1183,290,1183,289,1182,288C1179,284,1182,281,1182,277C1182,275,1182,274,1181,274Z
M655,275C650,278,634,287,628,285C627,283,633,282,637,280C646,277,647,277,654,275C654,275,655,275,655,275Z
M1968,285C1967,286,1967,287,1966,288C1966,287,1966,287,1965,286C1963,286,1965,285,1968,285Z
M1270,329C1269,329,1268,329,1268,330C1268,334,1287,335,1285,332C1282,331,1274,328,1270,329Z
M1895,405C1893,405,1891,407,1889,411C1886,422,1890,422,1893,429C1895,432,1895,425,1896,424C1897,422,1897,417,1897,414C1898,408,1897,405,1895,405Z
M597,426C596,426,594,426,593,427C588,428,580,435,584,435C599,432,598,433,609,433C619,436,626,442,627,449C627,450,645,450,649,448L651,447C648,445,640,440,638,439C635,438,629,434,629,432C629,431,629,431,629,431C622,432,614,425,604,425Z
M95,434C93,434,92,435,93,436C95,439,97,434,95,434Z
M90,436C89,436,89,437,89,438C90,437,90,436,90,436Z
M103,438C102,438,101,439,101,440C102,442,105,442,105,440C105,438,104,438,103,438Z
M108,442C107,442,107,442,106,442C107,445,111,448,114,446C115,444,111,442,108,442Z
M115,449C112,450,112,462,114,458C117,456,119,456,121,455C119,452,118,449,115,449Z
M653,450C651,450,650,450,650,450C647,452,647,453,649,453C658,466,642,457,640,461C642,469,654,463,657,466L659,469C664,461,669,462,677,464C682,458,672,455,671,454C669,452,658,450,653,450Z
M1902,454C1899,454,1898,455,1897,457C1896,460,1899,475,1897,472C1894,469,1894,471,1896,478C1898,483,1898,486,1899,489C1899,492,1902,495,1904,498C1906,502,1907,503,1909,501C1910,499,1910,495,1907,493C1912,489,1920,500,1920,502C1920,504,1920,505,1921,504C1924,502,1928,508,1926,503C1924,500,1926,499,1926,497C1925,493,1926,494,1927,492C1928,491,1928,491,1927,489C1926,487,1925,487,1925,489C1922,491,1916,486,1913,486C1908,487,1910,483,1913,484C1913,483,1910,481,1909,481C1906,480,1907,474,1909,474C1914,468,1909,464,1909,458C1909,456,1905,454,1902,454Z
M691,461C689,461,687,462,686,464C687,467,701,466,697,463C696,462,693,461,691,461Z
M619,461C615,461,613,462,617,465C622,469,622,466,626,466C630,463,624,461,619,461Z
M1930,505C1929,505,1927,505,1927,506C1935,521,1927,516,1936,526C1938,532,1936,532,1932,529C1931,532,1930,538,1927,535C1925,533,1922,534,1921,537C1917,540,1914,541,1915,546C1919,546,1922,545,1922,544C1925,544,1925,540,1927,541C1930,545,1928,550,1931,553C1935,555,1939,560,1940,558C1941,553,1938,547,1940,547C1942,547,1942,550,1943,551C1948,553,1944,532,1941,529C1941,529,1941,528,1941,526C1937,520,1936,521,1936,510C1937,507,1933,505,1930,505Z
M1912,510C1912,512,1913,515,1913,517C1922,523,1914,523,1917,528C1918,529,1920,529,1921,531C1922,526,1926,529,1930,527C1931,521,1927,515,1922,517C1919,516,1922,512,1919,512C1917,512,1915,511,1912,510Z
M1898,513C1895,515,1896,519,1894,522C1893,528,1887,529,1884,534C1883,535,1884,539,1885,537C1889,534,1895,523,1899,522C1901,521,1902,519,1900,519C1897,517,1898,515,1899,514C1899,514,1899,514,1898,513Z
M1899,514C1900,514,1900,514,1900,514C1900,514,1900,514,1899,514Z
M1641,525C1638,530,1641,530,1638,531C1641,535,1639,540,1640,544C1641,550,1642,557,1648,554C1653,551,1654,550,1654,546C1654,543,1650,535,1648,533C1645,529,1645,526,1641,525Z
M1885,545C1883,545,1881,548,1879,551C1873,561,1868,563,1860,571C1848,574,1843,590,1837,584C1837,582,1834,584,1833,587C1831,590,1831,593,1833,600C1838,613,1837,604,1839,617C1859,619,1846,628,1868,627C1868,627,1880,627,1880,627C1882,620,1881,612,1885,608C1893,603,1886,592,1894,593C1900,591,1881,570,1893,567C1900,558,1888,554,1888,552C1887,546,1886,545,1885,545Z
M1743,556C1742,556,1741,557,1742,560C1748,571,1757,577,1765,587C1765,588,1768,597,1769,598C1772,598,1778,610,1779,614C1782,622,1789,629,1795,635C1803,642,1803,642,1805,642C1816,640,1806,648,1806,648C1807,651,1813,649,1814,652C1820,657,1832,655,1838,658C1841,660,1857,660,1858,661C1863,662,1872,663,1872,663C1876,665,1879,666,1883,666C1892,660,1909,665,1918,663C1922,661,1932,663,1935,660C1937,659,1935,659,1927,659C1917,661,1903,659,1898,661C1898,658,1892,660,1890,659C1879,664,1868,657,1860,655C1848,653,1865,651,1864,650C1864,649,1862,649,1858,649C1838,644,1842,649,1838,649C1830,652,1825,641,1818,642C1808,646,1811,636,1812,631C1812,622,1813,620,1815,621C1825,622,1815,616,1814,611C1807,609,1807,612,1811,615C1806,617,1801,607,1797,604C1794,602,1800,598,1797,595C1797,591,1793,592,1790,588C1788,588,1784,583,1784,583C1776,580,1769,574,1765,569C1760,566,1759,559,1752,559C1749,559,1745,556,1743,556Z
M1938,585C1930,591,1926,594,1914,589C1911,586,1910,591,1908,592C1900,593,1901,617,1896,618C1894,627,1900,623,1901,628C1901,632,1899,636,1899,640C1902,642,1906,640,1906,637C1907,623,1907,619,1909,619C1911,618,1911,619,1910,622C1918,633,1917,636,1920,640C1924,643,1925,634,1925,631C1923,628,1915,613,1916,612C1918,610,1927,605,1927,605C1927,603,1925,602,1922,603C1916,605,1908,615,1905,599C1906,595,1907,595,1918,596C1926,595,1942,597,1939,587C1938,586,1938,585,1938,585Z
M1987,601C1980,606,1974,604,1972,604C1975,609,1987,616,1990,615C1997,621,1982,619,1982,619C1981,622,1995,633,1992,629C1991,626,1995,627,1996,627C1998,628,2000,630,2001,630C2002,631,2003,632,2005,632C2035,638,2030,649,2017,660C2017,662,2025,662,2026,660C2035,656,2034,667,2043,667C2055,667,2049,667,2051,672C2053,668,2060,652,2064,656C2068,657,2074,660,2074,664C2079,678,2101,676,2102,675C2092,670,2089,661,2083,655C2074,646,2085,650,2085,647C2084,643,2081,643,2078,641C2070,638,2075,630,2073,632C2070,625,2036,617,2027,612C2018,605,2018,614,2013,614C2009,614,2008,623,2004,623C2002,623,1994,616,1998,613C2000,607,1992,602,1987,601Z
M2048,678C2042,680,2038,699,2037,704C2037,709,2032,729,2025,729C2013,720,2005,716,1997,708C2006,700,2004,700,2008,693C1997,680,1982,685,1971,689C1964,693,1959,708,1956,708C1942,699,1935,700,1930,709C1911,717,1917,717,1901,740C1890,750,1861,749,1853,762C1850,757,1849,769,1845,774C1841,802,1840,776,1843,804C1844,813,1846,847,1837,847C1826,855,1854,862,1854,857C1865,850,1876,850,1888,851C1900,838,1920,834,1935,833C1945,829,1960,846,1958,854C1956,859,1976,858,1979,865C1980,871,1975,878,1986,883C1996,887,2006,881,2010,888C2016,883,2040,880,2041,873C2049,863,2059,847,2070,841C2073,838,2081,830,2081,827C2088,809,2097,794,2097,782C2097,781,2097,781,2097,782C2093,788,2085,772,2085,768C2075,760,2082,744,2068,742C2058,740,2065,727,2062,722C2059,707,2052,702,2052,701C2050,686,2052,689,2048,678Z
M1440,687C1436,697,1429,703,1426,708C1423,712,1413,718,1408,718C1405,719,1406,722,1405,725C1401,739,1410,742,1400,756C1396,759,1397,786,1405,786C1409,790,1413,786,1417,786C1424,784,1426,768,1429,762C1432,751,1438,742,1439,731C1440,714,1455,712,1440,687Z
M2192,853C2191,853,2190,854,2190,854C2191,858,2190,875,2189,877C2185,885,2180,886,2174,890C2178,893,2183,899,2175,900C2170,902,2170,892,2157,902C2149,910,2137,916,2130,920C2119,924,2108,930,2099,936C2096,938,2096,941,2099,941C2106,942,2102,947,2116,941C2122,938,2128,933,2132,930C2135,926,2139,924,2145,924C2150,918,2160,913,2167,906C2174,903,2173,909,2182,902C2186,901,2196,886,2200,889C2205,887,2218,872,2206,878C2201,882,2197,876,2200,873C2203,865,2193,873,2195,869C2198,863,2196,858,2192,853Z
M1996,897C1995,897,1994,900,1993,900C1991,904,1986,919,1991,921C2000,923,2010,910,2013,905C2016,900,2015,899,2009,901C2005,903,1996,902,1996,898C1996,897,1996,897,1996,897Z" />
      <path fill="white" d="M850,1058C835,1060,826,1066,822,1064C820,1070,817,1063,815,1067C814,1072,822,1069,813,1078C806,1088,810,1081,804,1081C800,1082,800,1089,804,1089C814,1088,811,1097,811,1101C806,1098,801,1093,795,1096C798,1105,783,1097,781,1102C784,1106,785,1105,782,1109C810,1112,783,1114,797,1116C812,1116,804,1123,804,1122C803,1118,777,1116,777,1117C770,1129,750,1120,742,1120C738,1121,731,1115,727,1118C723,1119,718,1118,714,1118C701,1117,693,1114,684,1114C677,1113,671,1114,665,1116L668,1119C674,1124,677,1124,683,1128C686,1131,696,1133,683,1132C675,1137,647,1118,643,1123C652,1126,657,1129,651,1129C623,1132,595,1122,566,1122C567,1132,551,1129,536,1130C533,1132,526,1132,526,1133C520,1139,511,1132,501,1136C490,1145,494,1145,478,1144C466,1147,464,1146,441,1154C465,1166,502,1179,545,1193L556,1197H1184L1812,1197C1851,1186,1891,1170,1927,1156C1932,1154,1944,1151,1920,1150C1907,1153,1876,1141,1865,1145C1855,1143,1840,1150,1838,1147C1837,1146,1842,1142,1849,1139C1866,1136,1882,1124,1898,1124C1902,1124,1924,1115,1926,1113C1927,1110,1911,1106,1907,1106C1899,1105,1894,1104,1889,1099C1877,1097,1876,1094,1875,1093C1870,1092,1859,1092,1852,1092C1839,1082,1821,1080,1806,1079C1796,1078,1810,1070,1803,1070C1802,1070,1798,1073,1797,1076C1791,1080,1781,1076,1773,1078C1747,1079,1746,1078,1723,1082C1713,1083,1702,1082,1696,1077C1681,1081,1658,1077,1646,1077C1631,1075,1630,1069,1626,1065C1617,1067,1609,1072,1599,1080C1593,1080,1571,1083,1570,1080C1566,1072,1541,1081,1533,1085C1519,1092,1505,1095,1492,1100C1485,1101,1471,1091,1472,1089C1460,1086,1437,1088,1420,1084C1408,1082,1415,1075,1399,1076C1371,1083,1353,1091,1327,1095C1317,1098,1315,1100,1303,1095C1297,1094,1289,1095,1283,1097C1266,1103,1239,1105,1224,1102C1206,1095,1180,1102,1171,1103C1169,1104,1133,1101,1132,1102C1131,1103,1114,1105,1098,1105C1086,1108,1079,1112,1070,1117C1058,1122,1057,1115,1050,1124C1045,1130,1040,1128,1032,1130C1036,1135,1035,1135,1024,1137C1016,1141,1007,1143,998,1147C995,1149,994,1150,986,1149C973,1146,961,1150,949,1149C950,1148,937,1145,930,1144C916,1142,903,1139,888,1136C874,1134,863,1130,866,1128C867,1127,868,1120,867,1120C861,1113,846,1107,846,1097C846,1094,850,1095,850,1093C845,1087,843,1088,839,1082C835,1073,848,1070,850,1067C844,1057,870,1063,850,1058Z" />
    </symbol>

    <mask id="frame">
      <rect x="0" y="0" height="100%" width="100%" fill="white" />
    </mask>

    <mask id="earth-outline">
      <circle cx="1000" cy="500" r="250" fill="white" />
    </mask>

    <filter id="atmosphere-filter">
      <feDropShadow dx="0" dy="0" stdDeviation="15" flood-color="rgb(125, 125, 255)" />
    </filter>

    <filter id="edge-filter">
      <feGaussianBlur stdDeviation="30" />
    </filter>

    <filter id="shade-filter">
      <feGaussianBlur stdDeviation="50" />
    </filter>
    
    <pattern id="stars-1" x="0" y="0" width="125" height="125" patternUnits="userSpaceOnUse">
      <circle cx="10" cy="10" r="2" fill="white" />
    </pattern>
    
    <pattern id="stars-2" x="0" y="0" width="150" height="150" patternUnits="userSpaceOnUse">
      <circle cx="10" cy="10" r="2" fill="white" />
    </pattern>
    
    <pattern id="stars-3" x="0" y="0" width="175" height="175" patternUnits="userSpaceOnUse">
      <circle cx="10" cy="10" r="3" fill="white" />
    </pattern>
    
    <pattern id="stars-4" x="0" y="0" width="250" height="250" patternUnits="userSpaceOnUse">
      <circle cx="10" cy="10" r="5" fill="white" />
    </pattern>
    
    <pattern id="stars-5" x="0" y="0" width="400" height="400" patternUnits="userSpaceOnUse">
      <circle cx="10" cy="10" r="7" fill="white" />
    </pattern>
    
    <pattern id="stars-6" x="0" y="0" width="600" height="600" patternUnits="userSpaceOnUse">
      <circle cx="10" cy="10" r="9" fill="white" />
    </pattern>
    
    <symbol id="stars">
      <g mask="url(#frame)">
        <rect x="-1000" y="-1000" height="4000" width="4000" fill="url(#stars-1)" transform="rotate(6, 1000, 500)" />
        <rect x="-1000" y="-1000" height="4000" width="4000" fill="url(#stars-2)" transform="rotate(33, 1000, 500)" />
        <rect x="-1000" y="-1000" height="4000" width="4000" fill="url(#stars-3)" transform="rotate(15, 1000, 500)" />
        <rect x="-1000" y="-1000" height="4000" width="4000" fill="url(#stars-4)" transform="rotate(-5, 1000, 500)" />
        <rect x="-1000" y="-1000" height="4000" width="4000" fill="url(#stars-5)" transform="rotate(9, 1000, 500)" />
        <rect x="-1000" y="-1000" height="4000" width="4000" fill="url(#stars-6)" transform="rotate(17, 1000, 500)" />
      </g>
    </symbol>
  </defs>
  
  <rect x="0" y="0" height="100%" width="100%" fill="black" />
  
  <use href="#stars" />
  
  <circle cx="50%" cy="50%" r="250" filter="url(#atmosphere-filter)" />
  
  <g mask="url(#earth-outline)" transform="rotate(10, 1000, 500)">
    <rect x="0" y="0" height="100%" width="100%" fill="#2C6B9E" />
    
    <g fill="#C1CD5D">
      <svg viewBox="90 0 2370 1200" height="50%" width="50%" x="650" y="250"><use href="#map" /></svg>
      <svg viewBox="90 0 2370 1200" height="50%" width="50%" x="1450" y="250"><use href="#map" /></svg>

      <animateTransform attributeName="transform" type="translate" from="-800 0" to="0 0" dur="30s" repeatCount="indefinite" />
    </g>
    
    <circle cx="57%" cy="50%" r="350" fill="none" stroke="black" stroke-width="100" filter="url(#shade-filter)" />
    <circle cx="50%" cy="50%" r="250" fill="none" stroke="black" stroke-width="25" filter="url(#edge-filter)" />
  </g>
</svg>
